<?xml version="1.0" encoding="utf-8"?>
<!-- Generator: Adobe Illustrator 16.0.3, SVG Export Plug-In . SVG Version: 6.00 Build 0)  -->
<!DOCTYPE svg PUBLIC "-//W3C//DTD SVG 1.1//EN" "http://www.w3.org/Graphics/SVG/1.1/DTD/svg11.dtd">
<svg version="1.1" id="Layer_1" xmlns="http://www.w3.org/2000/svg" xmlns:xlink="http://www.w3.org/1999/xlink" x="0px" y="0px"
	 width="300px" height="300px" viewBox="0 0 300 300" enable-background="new 0 0 300 300" xml:space="preserve">
<g>
	<path fill-rule="evenodd" clip-rule="evenodd" fill="#F4F4F4" d="M114.06,232.359c-1.191,0.742-1.924,1.189-2.13,1.313l-3.987,2.41
		l-66.135-86.577l12.634-2.054l0.198-0.007c2.672,0,16.487,0.643,50.749-19.56c38.37-22.629,57.479-60.468,57.667-60.846
		l2.075-4.181l84.325,33.088l-3.347,5.208c-0.049,0.082-1.155,1.79-3.153,4.744l53.625,39.155l-4.738,3.986
		c-0.366,0.312-35.646,29.452-77.148,51.858c-41.606,22.465-92.435,34.615-94.471,35.119l-4.521,1.125L114.06,232.359z"/>
	<path fill-rule="evenodd" clip-rule="evenodd" fill="#00B5E5" d="M118.406,228.799l1.113,3.238c0,0,49.221-12.238,90.743-34.658
		c41.519-22.422,77.739-52.922,77.739-52.922l-46.216-37.029c-1.554,2.252-3.128,4.491-4.717,6.718l39.324,32.069
		c0,0-40.253,36.544-83.539,54.085c-38.222,15.488-61.707,22.027-66.682,23.346c-2.348,1.594-4.711,3.164-7.09,4.713
		L118.406,228.799L118.406,228.799z M166.832,66.044c0,0-19.523,39.309-59.637,62.965c-40.113,23.655-55.358,21.902-55.358,21.902
		l57.984,79.36c0,0,43.406-26.234,76.447-59.924c33.039-33.688,58.63-73.53,58.63-73.53L166.832,66.044L166.832,66.044z
		 M157.591,126.168L146.85,136.97l-1.974-1.874c-0.921-0.876-1.653-1.295-2.177-1.262c-0.524,0.031-1.1,0.365-1.735,1.008
		c-0.695,0.697-1.05,1.386-1.063,2.068c-0.02,0.681,0.313,1.346,1.005,2.001c0.889,0.844,1.766,1.274,2.617,1.296
		c0.836,0.024,2.47-0.551,4.903-1.743c6.963-3.409,11.71-5.224,14.216-5.445c2.517-0.233,5.076,0.899,7.686,3.377
		c1.901,1.805,2.924,3.513,3.09,5.119c0.161,1.599-0.512,3.746-2.032,6.465c-1.268,2.281-3,4.605-5.196,6.972l2.485,2.359
		l-3.376,3.396l-2.518-2.391c-2.344,2.111-4.628,3.756-6.857,4.938c-2.89,1.529-5.206,2.113-6.976,1.77
		c-1.768-0.357-3.65-1.486-5.646-3.383l-1.748-1.66l10.74-10.803l3.245,3.084c0.999,0.947,1.789,1.406,2.375,1.377
		c0.591-0.027,1.264-0.432,2.031-1.207c0.77-0.771,1.161-1.517,1.171-2.241c0.015-0.72-0.337-1.421-1.047-2.093
		c-1.568-1.491-2.955-2.11-4.144-1.847c-1.224,0.286-3.834,1.326-7.838,3.131c-4.009,1.798-6.732,2.913-8.188,3.364
		c-1.448,0.441-2.939,0.545-4.458,0.293c-1.519-0.252-2.994-1.047-4.409-2.394c-2.043-1.939-3.108-3.793-3.18-5.569
		c-0.072-1.772,0.588-3.877,1.994-6.335c1.227-2.145,2.957-4.396,5.201-6.767l-2.475-2.352l3.376-3.396l2.527,2.401
		c2.122-1.91,4.166-3.436,6.127-4.589c2.696-1.563,4.824-2.273,6.396-2.117c1.568,0.149,3.416,1.226,5.536,3.24L157.591,126.168
		L157.591,126.168z M60.106,152.988c0,0,37.351-8.272,67.136-33.566c29.786-25.296,39.243-44.918,39.243-44.918l67.845,27.423
		c0,0-27.658,46.808-63.828,76.355c-36.167,29.551-57.68,42.553-57.68,42.553L60.106,152.988L60.106,152.988z M75.234,163.625
		c0,0,10.403-4.49,6.619-13c0,0,34.513-13.712,54.845-34.041c20.329-20.33,21.985-23.403,21.985-23.403s10.873,0.945,16.311-8.51
		l36.404,16.784c0,0-8.511,9.928,1.653,19.856c0,0-16.311,24.587-44.205,50.354c-27.894,25.768-39.477,30.258-39.477,30.258
		s-10.874-7.564-24.114-1.889l-24.821-30.732L75.234,163.625L75.234,163.625z M202.963,157.285c0.749,0.805,1.449,1.787,2.101,2.949
		c1.283,2.287,1.757,4.221,1.439,5.801c-0.318,1.574-1.594,3.43-3.851,5.576c-1.885,1.807-4.225,3.514-7.025,5.129l1.676,2.988
		l-4.23,2.246l-1.697-3.029c-2.863,1.326-5.532,2.221-8.01,2.691c-1.634,0.309-3.054,0.428-4.265,0.357
		c-10.556,9.861-21.857,19.098-33.411,27.742c0.581,0.609,0.884,0.992,0.884,0.992s12.392-0.867,46.654-17.24
		c34.266-16.375,57.113-35.041,57.113-35.041c-6.778-12.49,4.286-19.46,4.286-19.46l-21.531-19.344
		c-0.839,1.141-1.678,2.28-2.521,3.415C221.87,134.769,212.68,146.287,202.963,157.285L202.963,157.285z M188.269,173.072
		c0.549,0.076,1.264-0.119,2.138-0.584c0.963-0.512,1.56-1.109,1.782-1.797c0.164-0.49,0.142-1.025-0.06-1.604
		c-1.151,1.209-2.313,2.408-3.481,3.598L188.269,173.072L188.269,173.072z"/>
	<g>
		<g>
			<g>
				<g>
					<path fill="#F4F4F4" d="M59.573,148.151c-2.504,0-5.03-0.111-7.507-0.33c-3.36-0.294-7.338-0.701-11.356-1.484
						c-6.359-1.242-12.254-3.24-17.523-5.938c-3.806-1.952-9.363-5.16-13.659-10.467c-4.538-5.606-6.336-11.688-5.348-18.076
						c0.52-3.35,1.835-6.528,4.007-9.671c-0.475-3.819,0.126-7.639,1.799-11.369c2.122-4.729,5.616-8.775,10.683-12.37
						c5.628-4,12.005-6.904,18.951-8.634c3.161-0.787,7.347-1.771,11.689-2.389c3.843-0.546,7.816-0.825,11.809-0.825
						c3.252,0,6.603,0.184,9.96,0.549c7.373,0.8,13.808,2.252,19.679,4.439c6.13,2.281,10.886,4.895,14.965,8.228
						c3.289,2.683,5.509,5.101,7.199,7.837c4.479,7.245,4.813,14.928,0.971,22.222c-0.996,1.887-2.159,3.555-3.411,5.035
						l1.981,1.365l-0.581,3.225c-0.109,0.727-0.203,1.232-0.348,1.718c-1.251,4.208-3.674,7.986-7.398,11.544
						c-4.635,4.428-10.476,7.878-17.855,10.548c-5.334,1.928-10.903,3.259-17.025,4.065
						C67.348,147.892,63.418,148.151,59.573,148.151z M66.557,99.941c1.146,1.236,2.313,2.459,3.48,3.683l1.977,2.078
						c0.42,0.442,0.824,0.895,1.273,1.392l3.26,3.599l3.049-1.591c2.189-1.179,4.248-2.376,5.395-4.084
						c0.812-1.206,0.702-1.539,0.653-1.682c-0.383-1.153-1.165-2.396-4.235-3.655c-1.391-0.569-2.982-0.834-5.012-0.834
						c-1.274,0-2.582,0.104-3.58,0.195c-1.532,0.144-3.101,0.395-4.757,0.662C67.56,99.782,67.058,99.863,66.557,99.941z
						 M46.599,89.82c-0.83,0.476-1.64,0.94-2.426,1.438c-1.856,1.185-2.413,2.193-2.671,2.848c-0.07,0.175-0.068,0.259-0.068,0.259
						c0.319,0.796,1.027,1.535,2.161,2.244c2.063,1.288,4.589,1.918,7.943,1.985l0.79,0.008c2.24,0,4.456-0.189,6.603-0.562
						c-1.07-1.089-2.1-2.2-3.13-3.312l-6.156-6.685L46.599,89.82z"/>
				</g>
			</g>
			<path fill="#00B5E5" d="M108.377,119.029c-0.069,0.388-0.102,0.784-0.214,1.157c-1.102,3.699-3.294,6.706-6.037,9.327
				c-4.612,4.407-10.122,7.292-16.075,9.444c-5.181,1.874-10.504,3.088-15.96,3.809c-6.013,0.791-12.045,0.952-18.077,0.421
				c-3.625-0.318-7.263-0.715-10.83-1.411c-5.619-1.097-11.065-2.854-16.176-5.474c-4.54-2.326-8.769-5.113-12.026-9.138
				c-3.329-4.114-5.107-8.731-4.275-14.099c0.495-3.194,1.931-5.987,3.879-8.544c0.266-0.35,0.421-0.951,0.336-1.379
				c-0.682-3.415-0.209-6.66,1.205-9.818c1.953-4.351,5.154-7.583,8.985-10.303c5.247-3.726,11.024-6.298,17.239-7.846
				c3.688-0.919,7.415-1.753,11.174-2.286c6.808-0.972,13.65-1.002,20.502-0.257c6.315,0.686,12.504,1.932,18.455,4.146
				c4.851,1.809,9.468,4.092,13.524,7.403c2.344,1.915,4.499,3.995,6.087,6.569c3.438,5.562,3.905,11.29,0.8,17.182
				c-2.594,4.921-6.703,8.292-11.351,11.088c-4.672,2.816-9.685,4.872-15,6.123c-3.228,0.759-6.465,1.551-9.741,1.996
				c-5.641,0.762-11.321,1.159-17.021,0.65c-2.474-0.218-4.971-0.308-7.417-0.714c-3.303-0.549-6.591-1.25-9.842-2.061
				c-5.608-1.397-10.897-3.625-15.756-6.766c-4.512-2.917-8.367-6.491-10.686-11.469c-0.31-0.667-0.554-1.365-0.829-2.047
				c-0.104-0.005-0.208-0.011-0.312-0.014c-0.002,0.976-0.093,1.964,0.006,2.931c0.633,6.171,4.087,10.686,8.707,14.44
				c4.585,3.729,9.785,6.377,15.42,8.09c3.726,1.132,7.495,2.209,11.318,2.913c4.952,0.906,9.984,1.399,15.041,1.253
				c3.16-0.09,6.338-0.17,9.476-0.532c3.292-0.383,6.568-0.988,9.811-1.686c6.092-1.313,11.872-3.505,17.259-6.657
				c2.855-1.672,5.464-3.678,7.755-6.074c0.149-0.157,0.207-0.396,0.308-0.597C108.154,118.877,108.265,118.953,108.377,119.029z
				 M44.755,85.154c-1.318,0.771-2.589,1.47-3.809,2.247c-2.053,1.309-3.762,2.964-4.671,5.271c-0.508,1.286-0.59,2.662-0.067,3.98
				c0.822,2.068,2.372,3.56,4.196,4.697c3.206,2.001,6.809,2.687,10.537,2.76c3.334,0.064,6.643-0.23,9.905-0.926
				c0.586-0.127,0.926,0.039,1.318,0.464c1.865,2.014,3.773,3.984,5.658,5.978c0.561,0.591,1.098,1.201,1.757,1.929
				c-1.156,0-2.12,0.047-3.073-0.008c-2.349-0.139-4.576-0.699-6.624-1.913c-0.302-0.179-0.826-0.247-1.134-0.107
				c-2.854,1.278-5.684,2.611-8.519,3.933c-0.216,0.098-0.421,0.223-0.681,0.364c0.151,0.165,0.225,0.273,0.321,0.345
				c3.244,2.426,6.971,3.588,10.926,4.095c4.427,0.566,8.754-0.179,13.036-1.225c0.608-0.149,0.971-0.032,1.353,0.39
				c0.824,0.909,1.644,1.823,2.518,2.681c0.23,0.224,0.71,0.438,0.971,0.347c1.758-0.595,3.486-1.273,5.449-2.008
				c-1.256-1.367-2.398-2.607-3.61-3.923c0.387-0.2,0.693-0.354,0.998-0.518c2.74-1.477,5.417-3.071,7.2-5.722
				c1.236-1.835,2.023-3.836,1.261-6.127c-1.177-3.524-3.898-5.427-7.135-6.752c-3.55-1.456-7.281-1.336-10.983-0.997
				c-2.791,0.259-5.551,0.823-8.332,1.192c-0.367,0.05-0.893-0.124-1.154-0.384c-1.366-1.373-2.671-2.804-3.989-4.218
				c-0.928-0.996-1.843-2.004-2.889-3.141c2.402-0.178,4.544-0.157,6.514,0.97c0.789,0.455,1.484,0.475,2.338,0.032
				c1.773-0.917,3.625-1.687,5.437-2.532c0.954-0.444,1.89-0.916,2.835-1.375c0.012-0.111,0.025-0.227,0.039-0.337
				c-1.36-0.628-2.69-1.338-4.088-1.865c-3.195-1.205-6.526-1.584-9.908-1.146c-2.423,0.313-4.822,0.821-7.237,1.214
				c-0.265,0.041-0.711-0.014-0.815-0.182c-1.071-1.728-2.447-1.762-4.039-0.822c-0.027,0.017-0.063,0.016-0.093,0.024
				c-1.091,0.435-2.182,0.868-3.388,1.347C43.711,83.925,44.229,84.534,44.755,85.154z"/>
			<g>
				<path fill="#F4F4F4" d="M69.285,163c-5.476,0-11.097-0.521-16.702-1.713c-7.032-1.488-13.061-3.529-18.431-6.352
					c-5.077-2.666-9.05-5.67-12.141-9.234c-0.504-0.582-1.224-1.497-1.688-2.86l-3.494-10.29l10.144,3.926
					c0.442,0.155,0.812,0.302,1.163,0.483c4.123,2.14,8.538,3.731,13.514,4.871c3.884,0.886,8.048,1.719,12.157,1.796l1.782,0.038
					c2,0.042,4.001,0.085,6.002,0.085c2.378,0,4.349-0.06,6.196-0.189c4.98-0.345,10.106-1.338,15.238-2.952
					c5.373-1.686,9.851-3.804,13.693-6.475c2.93-2.036,5.1-4.215,6.628-6.666c1.8-2.883,2.386-5.739,1.792-8.739
					c-0.631-3.157,1.107-3.301,2.214-4.265l0.278-1.073c0.149-0.211,0.936-0.551,1.033-0.714l3.575-6.236l3.671,4.093
					c0.507,0.531,1.016,1.044,1.522,1.554c1.207,1.221,2.458,2.484,3.625,3.914c3.098,3.804,4.86,8.099,5.24,12.763
					c0.286,3.493-0.389,7.039-2.013,10.534c-2.532,5.452-6.666,9.829-13.008,13.771c-4.801,2.984-9.424,5.045-14.133,6.299
					l-2.115,0.572c-3.259,0.89-6.625,1.691-10.171,2.166C79.865,162.779,74.811,163,69.836,163H69.285z"/>
			</g>
			<path fill="#00B5E5" d="M111.733,114.474c1.686,1.767,3.414,3.366,4.886,5.173c2.351,2.885,3.809,6.209,4.116,9.962
				c0.229,2.799-0.385,5.455-1.559,7.982c-2.375,5.119-6.395,8.679-11.082,11.591c-3.992,2.482-8.208,4.494-12.756,5.707
				c-3.858,1.023-7.716,2.203-11.651,2.73c-4.917,0.656-9.913,0.984-14.873,0.959c-5.253-0.023-10.494-0.619-15.673-1.719
				c-5.969-1.264-11.723-3.1-17.121-5.937c-3.991-2.096-7.678-4.647-10.665-8.093c-0.288-0.333-0.55-0.69-0.713-1.177
				c0.224,0.087,0.459,0.151,0.671,0.261c4.667,2.422,9.586,4.133,14.706,5.305c4.349,0.993,8.728,1.839,13.195,1.923
				c4.809,0.092,9.64,0.253,14.429-0.079c5.571-0.385,11.053-1.487,16.41-3.17c5.368-1.688,10.447-3.94,15.072-7.152
				c3.185-2.212,5.976-4.843,8.042-8.15c2.378-3.811,3.351-7.941,2.465-12.415c-0.102-0.51-0.117-0.915,0.35-1.282
				c0.35-0.276,0.621-0.66,0.884-1.025C111.128,115.511,111.341,115.115,111.733,114.474z"/>
			<g>
				<path fill="#F4F4F4" d="M62.117,178c-3.103,0-6.142,0.072-9.038-0.293c-3.44-0.433-6.881-1.008-9.836-1.635
					c-5.239-1.111-10.424-2.894-15.414-5.418c-5.984-3.028-10.555-6.588-13.974-10.949c-5.89-7.513-6.771-16.699-2.357-24.603
					l3.158-5.827l4.399,4.097c0.897,0.512,2.486,1.711,3.336,2.226c1.41,0.851,2.889,0.759,3.203,2.411
					c0.555,2.924,1.948,5.539,4.14,7.773c1.383,1.413,3.055,2.8,5.421,4.502c3.144,2.265,7.038,4.087,12.254,5.741
					c4.925,1.56,9.283,2.47,13.326,2.785l2.435,0.204c2.503,0.216,4.863,0.419,7.219,0.475l0.968,0.009
					c1.818,0,3.809-0.111,6.45-0.367c2.408-0.229,5.566-0.565,8.657-1.142c6.534-1.218,12.232-3.193,17.417-6.04
					c1.033-0.565,2.085-1.304,3.2-2.081c0.586-0.41,1.17-0.816,1.763-1.211l3.669-2.406l9.652-3.183l-5.189,12.054l-0.489,0.878
					c-0.44,0.804-0.934,1.714-1.579,2.627c-2.356,3.331-5.494,6.291-9.595,9.044c-3.426,2.299-7.031,4.147-10.715,5.494
					c-3.542,1.293-7.159,2.378-10.752,3.225c-3.16,0.745-6.571,1.036-10.133,1.37C70.305,178.08,66.581,178,62.326,178H62.117z"/>
			</g>
			<path fill="#00B5E5" d="M16.146,136.726c1.254,0.719,2.423,1.374,3.57,2.067c0.185,0.111,0.347,0.378,0.389,0.599
				c0.765,4.029,2.677,7.497,5.503,10.379c1.839,1.876,3.942,3.53,6.081,5.069c4.151,2.988,8.853,4.928,13.69,6.459
				c4.705,1.49,9.516,2.623,14.461,3.01c3.31,0.264,6.622,0.613,9.933,0.689c2.671,0.064,5.36-0.121,8.024-0.377
				c3.043-0.291,6.097-0.645,9.101-1.205c6.633-1.236,13.004-3.324,18.934-6.582c1.859-1.021,3.558-2.338,5.331-3.516
				c0.233-0.156,0.471-0.307,0.705-0.459c0.07,0.049,0.139,0.102,0.206,0.15c-0.598,1.041-1.122,2.133-1.812,3.109
				c-2.225,3.146-5.087,5.615-8.279,7.758c-3.024,2.029-6.231,3.701-9.623,4.939c-3.322,1.213-6.732,2.242-10.173,3.051
				c-3.098,0.73-6.276,1.217-9.444,1.516c-3.629,0.34-7.286,0.463-10.93,0.473c-2.868,0.008-5.753-0.15-8.595-0.506
				c-3.16-0.398-6.297-1.033-9.418-1.693c-4.941-1.049-9.667-2.766-14.171-5.045c-4.712-2.385-8.976-5.383-12.269-9.584
				c-4.275-5.451-5.579-12.448-1.919-19C15.701,137.562,15.949,137.09,16.146,136.726z"/>
			<g>
				<path fill="#F4F4F4" d="M63.59,193.652c-3.667,0-7.371-0.224-11.012-0.662c-3.658-0.439-7.198-1.244-10.623-2.02
					c-4.838-1.102-9.505-2.808-14.019-5.105c-5.333-2.714-9.289-5.606-12.453-9.102c-5.407-5.977-7.582-12.6-6.462-19.687
					c0.02-0.266,0.083-0.184,0.187-0.56c1.032-3.852,3.89-3.801,5.071-3.801l0.83,0.743l2.384,4.342
					c0.377,0.602,1.747,0.948,2.119,1.59c0.721,1.24,1.305,1.948,2.065,2.859c1.375,1.648,3.128,1.449,4.979,2.911
					c3.636,2.87,8.201,3.992,14.214,5.867c3.71,1.153,7.821,2.008,12.567,2.639c3.425,0.454,6.934,0.668,10.727,0.668
					c1.047,0,2.096-0.021,3.148-0.055c4.623-0.144,9.399-0.757,14.195-1.819c5.089-1.13,9.555-2.659,13.654-4.676
					c4.898-2.41,8.361-5.036,10.893-8.27c0.531-0.677,1.038-1.604,1.576-2.584c0.286-0.519,0.569-1.037,0.867-1.546l0.282-0.669
					l1.4-3.05l3.761,0.112l4.091,0.227l0.653,4.047l0.129,0.734c0.161,0.85,0.308,1.699,0.354,2.558
					c0.363,6.378-1.928,12.26-6.81,17.479c-4.813,5.144-10.933,8.951-19.265,11.979c-3.843,1.401-7.904,2.508-12.07,3.292
					c-3.959,0.743-8.207,1.217-12.983,1.45C66.554,193.615,65.072,193.652,63.59,193.652z"/>
			</g>
			<path fill="#00B5E5" d="M13.782,157.287c1.152,1.838,2.202,3.979,3.684,5.756c1.657,1.986,3.577,3.813,5.61,5.418
				c4.692,3.705,10.122,6.055,15.783,7.82c4.37,1.361,8.854,2.234,13.41,2.84c4.897,0.652,9.793,0.822,14.704,0.668
				c5.096-0.158,10.146-0.832,15.138-1.938c5.126-1.137,10.089-2.76,14.796-5.072c4.846-2.385,9.28-5.395,12.651-9.695
				c1.122-1.43,1.907-3.123,2.831-4.703c0.203-0.35,0.342-0.738,0.511-1.107c0.089,0.002,0.176,0.006,0.263,0.012
				c0.149,0.924,0.38,1.842,0.432,2.773c0.308,5.406-1.852,9.881-5.447,13.721c-4.787,5.117-10.774,8.309-17.289,10.676
				c-3.679,1.34-7.433,2.352-11.271,3.072c-4.062,0.764-8.16,1.168-12.294,1.369c-4.893,0.234-9.766,0.059-14.606-0.523
				c-3.447-0.416-6.859-1.195-10.251-1.965c-4.42-1.006-8.66-2.592-12.694-4.645c-4.072-2.076-7.886-4.553-10.988-7.98
				c-3.983-4.402-6.167-9.416-5.209-15.482c0.025-0.158,0.025-0.326,0.067-0.479C13.687,157.549,13.783,157.283,13.782,157.287z"/>
			<g>
				<path fill="#F4F4F4" d="M58.292,97.421l11.014-1.267c1.386-0.167,2.815-0.339,4.328-0.339c2.659,0,4.958,0.566,7.028,1.732
					c2.493,1.403,5.611,3.167,5.958,5.797c0.348,2.628-2.11,5.833-4.146,7.837c-0.615,0.604-1.296,1.135-2.018,1.683l-0.688,0.532
					l-3.662,2.927L58.292,97.421z"/>
			</g>
			<path fill="#00B5E5" d="M68.455,101.748c3.299-0.377,6.337-0.962,9.215,0.658c2.279,1.284,2.607,3.747,0.742,5.58
				c-0.68,0.667-1.487,1.206-2.316,1.868C73.566,107.167,71.119,104.574,68.455,101.748z"/>
			<g>
				<path fill="#F4F4F4" d="M53.974,101.708c-2.559,0-5.881-0.331-8.898-2.938c-1.616-1.401-3.88-2.64-3.962-4.787
					c-0.088-2.321,2.187-5.364,3.918-7.116c0.791-0.796,2.253-2.269,4.659-2.269c2.516,0,3.99,1.596,4.78,2.456
					c1.234,1.333,2.482,2.661,3.734,3.988l3.753,3.997l-1.107,3.233l-1.162,3.273l-3.935,0.124
					C55.16,101.69,54.564,101.708,53.974,101.708z"/>
			</g>
			<path fill="#00B5E5" d="M55.562,97.001c-2.678,0.084-5.392,0.308-7.659-1.651c-1.266-1.098-1.136-3.082,0.246-4.477
				c1.027-1.034,1.102-1.015,2.088,0.055c1.793,1.942,3.613,3.858,5.423,5.788C55.627,96.81,55.595,96.907,55.562,97.001z"/>
		</g>
	</g>
</g>
</svg>
