<?xml version="1.0" encoding="utf-8"?>
<!-- Generator: Adobe Illustrator 16.0.3, SVG Export Plug-In . SVG Version: 6.00 Build 0)  -->
<!DOCTYPE svg PUBLIC "-//W3C//DTD SVG 1.1//EN" "http://www.w3.org/Graphics/SVG/1.1/DTD/svg11.dtd">
<svg version="1.1" id="Layer_1" xmlns="http://www.w3.org/2000/svg" xmlns:xlink="http://www.w3.org/1999/xlink" x="0px" y="0px"
	 width="300px" height="300px" viewBox="0 0 300 300" enable-background="new 0 0 300 300" xml:space="preserve">
<g>
	<g>
		<path fill="#00B5E5" d="M7.335,48.029c2.851-13.501,13.208-20.436,23.75-27.246c1.34-0.866,2.648-2.022,3.51-3.344
			c5.995-9.18,18.629-11.786,27.724-5.605c8.996,6.112,11.373,18.772,5.176,27.571C61.021,48.6,48.23,50.754,39.473,43.96
			c-1.633-1.269-2.517-0.934-4.025,0.064c-5.052,3.336-6.648,7.401-5.41,13.646c4.662,23.542,10.702,46.63,20.585,68.566
			c5.86,13.005,12.625,25.484,23.314,35.301c6.65,6.107,14.218,10.05,23.633,9.188c7.487-0.685,13.499-4.371,18.87-9.284
			c7.707-7.05,13.362-15.64,18.134-24.832c12.022-23.162,19.479-47.85,24.383-73.379c0.648-3.368,1.066-6.782,1.79-10.132
			c0.466-2.164-0.064-3.803-1.692-5.208c-0.629-0.545-1.154-1.208-1.772-1.771c-3.813-3.458-3.816-3.456-8.162-0.979
			c-9.168,5.228-20.102,2.905-26.257-5.583c-5.646-7.783-4.405-19.461,2.753-25.878c7.808-7,18.986-6.991,26.851,0.023
			c0.208,0.186,0.485,0.336,0.608,0.567c2.826,5.412,8.482,7.483,12.863,11.071c4.279,3.508,8.47,7.259,12.049,11.456
			c5.054,5.926,5.462,13.121,4.184,20.57c-5.323,31.054-13.648,61.152-28.28,89.243c-6.918,13.286-15.384,25.4-27.337,34.746
			c-0.292,0.229-0.553,0.532-0.882,0.677c-6.506,2.86-9.438,8.031-11.148,14.821c-1.162,4.606-4.433,8.676-6.701,13.015
			c-0.443,0.849-0.973,1.894-0.848,2.76c2.301,15.858,7.406,30.455,19.424,41.792c8.836,8.334,19.64,12.572,31.442,14.229
			c14.893,2.094,29.675,1.488,43.932-3.811c18.776-6.979,29.563-20.993,34.475-39.997c0.066-0.251-0.015-0.541-0.034-0.991
			c-6.263-2.102-12.004-5.187-16.96-9.688c-12.76-11.598-17.566-30.129-11.943-46.361c5.841-16.869,20.718-28.39,38.184-29.577
			c23.341-1.585,43.147,14.372,46.604,37.535c0.107,0.72,0.374,1.413,0.566,2.118c0,2.603,0,5.203,0,7.802
			c-0.198,0.794-0.445,1.58-0.585,2.386c-3.222,18.269-13.758,30.174-31.348,35.831c-1.684,0.54-2.353,1.248-2.684,2.939
			c-1.938,9.924-5.537,19.231-10.933,27.797c-12.981,20.609-32.149,31.491-55.779,35.275c-3.922,0.627-7.866,1.107-11.801,1.656
			c-4.645,0-9.286,0-13.933,0c-4.401-0.581-8.83-1.015-13.204-1.767c-17.708-3.047-33.14-10.477-45.313-23.985
			c-11.862-13.168-17.969-28.979-21.133-46.143c-0.481-2.606-0.455-5.74-1.929-7.649c-5.326-6.905-8.899-14.481-10.805-22.937
			c-0.199-0.88-0.748-1.991-1.471-2.396c-12.504-7.003-21.661-17.369-29.117-29.305c-15.521-24.845-24.334-52.307-30.773-80.627
			c-1.783-7.842-3.03-15.803-4.523-23.71C7.335,51.372,7.335,49.7,7.335,48.029z"/>
		<path fill="#F4F4F4" d="M179.734,294.418l-14.504-0.027c-1.379-0.18-2.761-0.346-4.141-0.517
			c-3.005-0.364-6.109-0.738-9.175-1.267c-19.258-3.31-35.054-11.687-46.949-24.886c-11.045-12.261-18.182-27.813-21.817-47.539
			c-0.134-0.72-0.232-1.472-0.329-2.235c-0.213-1.66-0.432-3.38-1.056-4.188c-5.616-7.283-9.322-15.151-11.329-24.051
			c-0.067-0.311-0.233-0.618-0.309-0.701c-11.39-6.338-21.25-16.244-29.917-30.115C26.505,136.955,16.903,111.818,9.076,77.39
			C7.836,71.941,6.845,66.379,5.883,61c-0.443-2.474-0.886-4.955-1.352-7.423l-0.049-0.531l0.06-5.605
			C7.7,32.495,19.3,24.999,29.536,18.387c1.15-0.744,2.099-1.636,2.671-2.511c4.195-6.425,11.341-10.26,19.114-10.26
			c4.53,0,8.888,1.333,12.601,3.858c4.95,3.359,8.417,8.731,9.51,14.73c1.096,6.008-0.186,11.99-3.603,16.845
			c-4.296,6.099-11.281,9.743-18.684,9.743c-4.918,0-9.558-1.584-13.42-4.577c-0.072-0.057-0.134-0.101-0.185-0.137
			c-0.115,0.064-0.283,0.167-0.521,0.325c-4.064,2.684-5.197,5.589-4.184,10.712c5.549,28.013,11.836,48.971,20.389,67.95
			c5.42,12.031,11.914,24.517,22.642,34.37c7.069,6.489,13.726,9.16,21.443,8.451c5.958-0.545,11.424-3.262,17.205-8.548
			c6.558-5.997,12.125-13.638,17.528-24.044c10.858-20.918,18.747-44.667,24.115-72.601c0.273-1.422,0.504-2.848,0.735-4.274
			c0.322-1.981,0.643-3.962,1.066-5.924c0.247-1.151,0.069-1.722-0.768-2.445c-0.41-0.355-0.787-0.748-1.161-1.144
			c-0.217-0.228-0.432-0.462-0.663-0.671c-1.017-0.922-2.066-1.876-2.432-2.026c-0.091,0.095-1.26,0.764-2.391,1.411
			c-3.621,2.061-7.644,3.151-11.642,3.151c-7.261,0-13.95-3.479-18.348-9.539c-6.506-8.968-5.09-22.28,3.16-29.674
			c4.293-3.854,9.724-5.976,15.292-5.976c5.574,0,11.029,2.13,15.363,5.992c0.321,0.242,0.857,0.652,1.234,1.372
			c1.603,3.067,4.49,4.949,7.547,6.943c1.531,0.998,3.113,2.029,4.599,3.245c3.332,2.731,8.243,6.925,12.409,11.812
			c6.533,7.661,5.885,16.738,4.829,22.902c-6.146,35.842-15.219,64.463-28.563,90.082c-8.209,15.765-17.144,27.101-28.109,35.677
			c-0.417,0.365-0.853,0.757-1.495,1.039c-5.014,2.206-7.773,5.942-9.526,12.905c-0.892,3.533-2.783,6.637-4.616,9.641
			c-0.809,1.324-1.618,2.647-2.324,4c-0.151,0.291-0.505,0.969-0.546,1.233c2.588,17.678,8.484,30.425,18.55,39.919
			c7.783,7.339,17.557,11.75,29.881,13.48c16.04,2.255,29.853,1.06,42.539-3.661c16.548-6.154,27.118-18.073,32.273-36.414
			c-6.104-2.317-11.264-5.432-15.715-9.479c-13.57-12.331-18.685-32.189-12.721-49.404c6.188-17.871,22.16-30.228,40.688-31.49
			c24.846-1.681,45.987,15.628,49.62,39.963c0.051,0.346,0.168,0.686,0.271,1.025l0.325,1.515l-0.082,8.491l-0.212,0.811
			c-0.126,0.458-0.251,0.912-0.335,1.378c-3.391,19.243-14.591,32.043-33.281,38.054c-0.435,0.139-0.59,0.235-0.631,0.266
			c0.006,0.008-0.058,0.148-0.127,0.502c-2.031,10.395-5.837,20.073-11.318,28.772c-12.704,20.166-32.132,32.473-57.744,36.573
			c-2.698,0.432-5.408,0.793-8.117,1.159L179.734,294.418z M165.79,288.711h13.554l3.569-0.484c2.661-0.355,5.322-0.714,7.974-1.138
			c24.255-3.883,41.859-14.996,53.815-33.979c5.104-8.1,8.652-17.125,10.547-26.821c0.529-2.711,1.907-4.243,4.611-5.111
			c16.752-5.386,26.37-16.379,29.408-33.609c0.111-0.634,0.276-1.254,0.443-1.875l0.101-0.378l-0.073-7.273
			c-0.189-0.617-0.367-1.231-0.463-1.86c-3.243-21.719-21.473-36.604-43.587-35.11c-16.238,1.104-30.245,11.962-35.685,27.664
			c-5.224,15.087-0.737,32.49,11.168,43.313c4.393,3.995,9.609,6.97,15.949,9.096l1.859,0.625l0.084,1.96
			c0.059,0.617,0.116,1.17-0.057,1.833c-5.401,20.902-17.599,35.019-36.242,41.952c-13.587,5.052-28.32,6.353-45.322,3.965
			c-13.537-1.903-24.332-6.805-33.002-14.982c-11.052-10.424-17.5-24.232-20.292-43.457c-0.259-1.803,0.587-3.419,1.145-4.49
			c0.764-1.459,1.636-2.894,2.51-4.326c1.684-2.762,3.274-5.368,3.953-8.063c1.456-5.779,4.199-12.88,12.572-16.652
			c0.216-0.188,0.339-0.295,0.463-0.394c10.308-8.057,18.748-18.805,26.569-33.82c13.061-25.076,21.958-53.168,27.998-88.407
			c1.39-8.106,0.299-13.732-3.544-18.235c-2.987-3.501-6.59-6.924-11.684-11.098c-1.249-1.026-2.634-1.928-4.101-2.884
			c-3.268-2.131-6.955-4.536-9.265-8.666c-0.074-0.062-0.138-0.115-0.2-0.167c-3.282-2.929-7.391-4.545-11.563-4.545
			c-4.159,0-8.237,1.605-11.484,4.517c-6.031,5.409-7.105,15.517-2.347,22.076c3.31,4.565,8.314,7.182,13.728,7.182
			c3.009,0,6.055-0.831,8.807-2.4c2.329-1.329,3.73-2.128,5.441-2.128c2.229,0,3.666,1.31,6.052,3.475
			c0.34,0.31,0.66,0.641,0.978,0.978c0.241,0.256,0.479,0.513,0.742,0.741c2.426,2.096,3.304,4.777,2.616,7.97
			c-0.401,1.866-0.707,3.75-1.012,5.634c-0.242,1.482-0.481,2.961-0.765,4.435c-5.473,28.483-13.538,52.738-24.654,74.153
			c-5.72,11.02-11.676,19.165-18.743,25.627c-6.749,6.17-13.273,9.354-20.535,10.017c-9.365,0.858-17.617-2.392-25.822-9.928
			C60.49,153.063,53.42,139.39,48.022,127.411c-8.74-19.393-15.149-40.731-20.785-69.187c-1.457-7.359,0.652-12.628,6.636-16.582
			c0.996-0.658,2.186-1.36,3.699-1.36c1.628,0,2.862,0.812,3.649,1.421c2.854,2.213,6.285,3.382,9.924,3.382
			c5.549,0,10.791-2.739,14.019-7.321c2.53-3.593,3.472-8.044,2.654-12.537c-0.82-4.502-3.408-8.525-7.103-11.033
			c-2.764-1.878-6.012-2.871-9.393-2.871c-5.837,0-11.198,2.871-14.336,7.673c-1.281,1.962-3.075,3.359-4.352,4.186
			c-9.682,6.253-19.689,12.717-22.444,25.153v4.443c0.451,2.402,0.881,4.81,1.313,7.218c0.948,5.315,1.93,10.811,3.138,16.128
			c7.68,33.777,17.058,58.372,30.41,79.744c8.146,13.039,17.335,22.302,28.095,28.331c1.604,0.894,2.528,2.785,2.859,4.256
			c1.819,8.069,5.184,15.21,10.28,21.819c1.569,2.036,1.901,4.646,2.198,6.952c0.084,0.654,0.166,1.306,0.279,1.925
			c3.438,18.658,10.129,33.297,20.447,44.75c11.17,12.399,25.458,19.95,43.677,23.083c2.923,0.5,5.958,0.87,8.892,1.226
			C163.115,288.371,164.455,288.536,165.79,288.711z"/>
	</g>
	<path fill="#F4F4F4" d="M248.412,203.719c12.279,0.228,22.285-9.481,22.421-21.751c0.131-11.907-9.588-21.867-21.564-22.094
		c-12.243-0.237-22.275,9.314-22.459,21.377C226.619,193.743,235.997,203.494,248.412,203.719z"/>
	<g>
		<path fill="#00B5E5" d="M237.996,181.409c0.169-5.973,5.113-10.589,11.122-10.382c5.974,0.203,10.745,5.219,10.536,11.073
			c-0.209,5.913-5.286,10.771-11.087,10.602C242.457,192.527,237.823,187.577,237.996,181.409z"/>
		<path fill="#F4F4F4" d="M248.858,195.562l-0.374-0.006c-7.698-0.219-13.559-6.472-13.34-14.227
			c0.207-7.38,6.174-13.163,13.588-13.163l0.481,0.012c3.694,0.124,7.122,1.686,9.651,4.401c2.475,2.652,3.768,6.071,3.64,9.624
			C262.243,189.568,256.122,195.562,248.858,195.562z M248.732,173.873c-4.302,0-7.764,3.344-7.884,7.617
			c-0.128,4.558,3.298,8.231,7.799,8.357l0.211,0.007c4.156,0,7.794-3.598,7.944-7.856c0.073-2.025-0.676-3.989-2.11-5.526
			c-1.489-1.598-3.505-2.521-5.673-2.595L248.732,173.873z"/>
	</g>
</g>
</svg>
