<?xml version="1.0" encoding="utf-8"?>
<!-- Generator: Adobe Illustrator 16.0.3, SVG Export Plug-In . SVG Version: 6.00 Build 0)  -->
<!DOCTYPE svg PUBLIC "-//W3C//DTD SVG 1.1//EN" "http://www.w3.org/Graphics/SVG/1.1/DTD/svg11.dtd">
<svg version="1.1" id="Layer_1" xmlns="http://www.w3.org/2000/svg" xmlns:xlink="http://www.w3.org/1999/xlink" x="0px" y="0px"
	 width="300px" height="300px" viewBox="0 0 300 300" enable-background="new 0 0 300 300" xml:space="preserve">
<g>
	<path fill="#F4F4F4" d="M50,53h178v55.234l-17.586,2.18c0,0-10.605,5.652-10.048,9.396c0.557,3.742,0.99,49.697,0.99,49.697
		L50,168.393V53z"/>
	<g>
		<path fill-rule="evenodd" clip-rule="evenodd" fill="#00B5E5" d="M198.866,171.702H51.584c-2.487,0-4.521-2.034-4.521-4.523
			V53.647c0-2.489,2.033-4.524,4.521-4.524h174.822c2.49,0,4.522,2.035,4.522,4.524v51.288h16.283V46.951
			c0-7.776-6.362-14.139-14.138-14.139H44.919c-7.776,0-14.14,6.362-14.14,14.139v126.926c0,7.775,6.363,14.136,14.14,14.136
			h153.947V171.702z"/>
		<path fill="#F4F4F4" d="M233.074,32.813c7.775,0,14.138,6.362,14.138,14.139v57.984h-16.283V53.647
			c0-2.489-2.032-4.524-4.522-4.524H51.584c-2.487,0-4.521,2.035-4.521,4.524v113.536c0,2.484,2.033,4.519,4.521,4.519h147.282
			v16.311H44.919c-7.776,0-14.14-6.36-14.14-14.136V46.951c0-7.776,6.363-14.139,14.14-14.139H233.074 M233.074,27.729H44.919
			c-10.599,0-19.224,8.623-19.224,19.222v126.926c0,10.601,8.625,19.222,19.224,19.222h153.947h5.083v-5.086v-16.311v-5.082h-5.083
			H52.146V54.206h173.699v50.729v5.082h5.083h16.283h5.083v-5.082V46.951C252.295,36.353,243.675,27.729,233.074,27.729
			L233.074,27.729z"/>
	</g>
	<g>
		<path fill-rule="evenodd" clip-rule="evenodd" fill="#00B5E5" d="M198.866,195.455H6.843v11.437
			c0,10.394,8.505,18.901,18.9,18.901h173.123V195.455z"/>
		<path fill="#F4F4F4" d="M198.866,195.455v30.338H25.743c-10.396,0-18.9-8.508-18.9-18.901v-11.437H198.866 M202.209,192.112
			h-3.343H6.843H3.501v3.343v11.437c0,12.265,9.978,22.243,22.242,22.243h173.123h3.343v-3.342v-30.338V192.112L202.209,192.112z"/>
	</g>
	<g>
		<path fill-rule="evenodd" clip-rule="evenodd" fill="#F4F4F4" d="M165.259,214.698h-52.525c-2.241,0-4.071-1.835-4.071-4.073
			c0-2.241,1.83-4.076,4.071-4.076h52.525c2.242,0,4.074,1.835,4.074,4.076C169.333,212.863,167.501,214.698,165.259,214.698z"/>
	</g>
	<g>
		<path fill="#00B5E5" d="M280.095,111.613h-65.469c-6.251,0-11.315,5.078-11.315,11.334v132.922
			c0,6.246,5.064,11.318,11.315,11.318h65.469c6.251,0,11.321-5.072,11.321-11.318V122.947
			C291.416,116.691,286.346,111.613,280.095,111.613z"/>
		<path fill="#F4F4F4" d="M280.095,111.613c6.251,0,11.321,5.078,11.321,11.334v132.922c0,6.246-5.07,11.318-11.321,11.318h-65.469
			c-6.251,0-11.315-5.072-11.315-11.318V122.947c0-6.256,5.064-11.334,11.315-11.334H280.095 M280.095,106.529h-65.469
			c-9.041,0-16.395,7.366-16.395,16.418v132.922c0,9.042,7.354,16.401,16.395,16.401h65.469c9.048,0,16.404-7.359,16.404-16.401
			V122.947C296.499,113.896,289.143,106.529,280.095,106.529L280.095,106.529z"/>
	</g>
	<g>
		<path fill="#E3E1E4" d="M247.361,256.009c-3.991,0-7.226-3.245-7.226-7.236c0-3.989,3.234-7.224,7.226-7.224
			c3.977,0,7.224,3.234,7.224,7.224C254.585,252.764,251.338,256.009,247.361,256.009z"/>
	</g>
	<g>
		<rect x="211.798" y="130.732" fill="#F4F4F4" width="71.126" height="100.503"/>
		<path fill="#00B5E5" d="M282.924,130.732v100.503h-71.126V130.732H282.924 M288.006,125.65h-5.082h-71.126h-5.083v5.082v100.503
			v5.082h5.083h71.126h5.082v-5.082V130.732V125.65L288.006,125.65z"/>
	</g>
	<g>
		<rect x="232.186" y="119.81" fill="#E3E1E4" width="30.358" height="3.31"/>
		<path fill="#00B5E5" d="M262.544,119.81v3.31h-30.358v-3.31H262.544 M267.627,114.728h-5.083h-30.358h-5.083v5.082v3.31v5.083
			h5.083h30.358h5.083v-5.083v-3.31V114.728L267.627,114.728z"/>
	</g>
	<g>
		<path fill="#E3E1E4" d="M275.529,121.603c0,1.6-1.303,2.898-2.898,2.898c-1.605,0-2.902-1.299-2.902-2.898
			c0-1.602,1.297-2.898,2.902-2.898C274.227,118.704,275.529,120.001,275.529,121.603z"/>
		<path fill="#00B5E5" d="M272.631,118.704c1.596,0,2.898,1.297,2.898,2.898c0,1.6-1.303,2.898-2.898,2.898
			c-1.605,0-2.902-1.299-2.902-2.898C269.729,120.001,271.025,118.704,272.631,118.704 M272.631,113.621
			c-4.403,0-7.984,3.582-7.984,7.981c0,4.402,3.581,7.981,7.984,7.981c4.402,0,7.981-3.579,7.981-7.981
			C280.612,117.203,277.033,113.621,272.631,113.621L272.631,113.621z"/>
	</g>
	<g>
		<path fill="#00B5E5" d="M89.455,143.018c0.579-1.604,1.565-2.776,3.412-2.563c0.766,0.09,1.519,0.604,2.2,1.045
			c0.365,0.237,0.567,0.728,0.952,1.253c0.564-1.063,0.956-1.802,1.344-2.541c9.387-17.834,18.765-35.67,28.173-53.49
			c0.4-0.762,0.431-1.251-0.27-1.808c-0.583-0.463-1.075-1.041-1.598-1.576c-1.396-1.434-1.483-3.381-0.215-4.672
			c1.301-1.327,3.258-1.26,4.73,0.202c3.801,3.784,7.59,7.583,11.382,11.377c9.704,9.701,19.413,19.396,29.085,29.13
			c0.576,0.578,1.031,1.433,1.194,2.229c0.275,1.32-0.518,2.565-1.694,3.146c-1.178,0.582-2.567,0.403-3.566-0.513
			c-0.735-0.675-1.44-1.386-2.119-2.115c-0.374-0.396-0.671-0.48-1.193-0.204c-8.803,4.673-17.619,9.325-26.433,13.981
			c-0.213,0.114-0.406,0.262-0.6,0.388c3.124,7.468-0.731,13.743-5.205,16.254c-4.557,2.559-12.377,2.385-16.863-4.653
			c-2.271,1.198-4.55,2.401-6.963,3.675c0.34,0.354,0.607,0.639,0.879,0.917c1.963,1.996,1.391,4.556-1.24,5.547
			c-0.087,0.033-0.156,0.101-0.234,0.15c-0.375,0-0.749,0-1.123,0c-0.818-0.588-1.729-1.084-2.441-1.779
			c-3.308-3.233-6.58-6.506-9.813-9.812c-0.698-0.711-1.192-1.623-1.78-2.443C89.455,143.766,89.455,143.392,89.455,143.018z
			 M102.964,144.982c12.433-13.675,24.723-27.199,36.824-40.514c-3.128-3.156-6.164-6.216-9.21-9.286
			c-0.111,0.169-0.287,0.425-0.451,0.686c-6.862,10.985-13.726,21.975-20.588,32.961c-2.739,4.385-5.483,8.764-8.198,13.163
			c-0.17,0.271-0.259,0.807-0.107,1.021C101.715,143.692,102.328,144.277,102.964,144.982z M117.938,144.835
			c1.539,2.739,5.171,3.675,7.956,2.141c2.741-1.506,3.94-5.026,2.541-7.683C124.958,141.129,121.48,142.966,117.938,144.835z"/>
		<path fill="#00B5E5" d="M185.265,103.533c-0.632,0.402-1.21,0.964-1.897,1.18c-3.974,1.245-7.973,2.411-11.965,3.593
			c-0.353,0.104-0.742,0.224-1.09,0.173c-0.738-0.109-1.25-0.541-1.337-1.339c-0.092-0.864,0.283-1.465,1.11-1.712
			c4.345-1.307,8.693-2.604,13.045-3.887c1.011-0.3,1.65,0.24,2.134,1.058C185.265,102.909,185.265,103.223,185.265,103.533z"/>
		<path fill="#00B5E5" d="M145.032,62.365c1.193,0.84,1.328,1.219,0.896,2.673c-1.188,4.022-2.376,8.044-3.593,12.059
			c-0.137,0.456-0.367,1.063-0.724,1.229c-0.495,0.229-1.228,0.283-1.72,0.081c-0.735-0.301-0.902-1.041-0.668-1.826
			c1.047-3.515,2.087-7.028,3.129-10.542c0.177-0.597,0.277-1.229,0.547-1.78c0.323-0.666,0.789-1.264,1.196-1.894
			C144.408,62.365,144.719,62.365,145.032,62.365z"/>
		<path fill="#00B5E5" d="M168.984,80.27c-0.333,0.587-0.484,1.053-0.792,1.362c-3.773,3.805-7.563,7.595-11.362,11.375
			c-0.762,0.757-1.658,0.783-2.319,0.14c-0.682-0.662-0.648-1.598,0.14-2.391c3.762-3.774,7.532-7.536,11.304-11.303
			c0.497-0.498,1.109-0.834,1.755-0.448C168.192,79.294,168.539,79.813,168.984,80.27z"/>
	</g>
</g>
</svg>
