<?xml version="1.0" encoding="utf-8"?>
<!-- Generator: Adobe Illustrator 16.0.3, SVG Export Plug-In . SVG Version: 6.00 Build 0)  -->
<!DOCTYPE svg PUBLIC "-//W3C//DTD SVG 1.1//EN" "http://www.w3.org/Graphics/SVG/1.1/DTD/svg11.dtd">
<svg version="1.1" id="Layer_1" xmlns="http://www.w3.org/2000/svg" xmlns:xlink="http://www.w3.org/1999/xlink" x="0px" y="0px"
	 width="300px" height="300px" viewBox="0 0 300 300" enable-background="new 0 0 300 300" xml:space="preserve">
<g>
	<path fill="#F4F4F4" d="M295.984,134.547l-0.05-0.227l-0.058-0.139c-0.98-2.302-3.963-9.305-12.158-9.471
		c-3.146-0.062-6.41-0.093-9.699-0.093c-1.307,0-2.644,0.007-3.993,0.017c-0.004-0.001-0.008-0.001-0.012-0.002
		c-4.329-0.472-6.83-5.269-8.183-9.163c0.047-1.258-0.287-2.417-0.646-3.266c-1.106-2.63-2.154-5.39-3.166-8.061
		c-2.167-5.719-4.41-11.632-7.536-17.109c-24.278-42.519-61.385-65.422-110.282-68.072c-2.242-0.122-4.517-0.183-6.745-0.183
		c-18.012,0-35.437,3.953-51.759,11.75C39.707,50.586,14.287,83.925,6.203,129.62c-0.533,3.013-0.97,6.05-1.334,8.988
		c-0.166,1.342-0.455,2.684-0.635,4.023l-0.282,0.271v14.403l0.363,0.479c0.074,0.296,0.401,0.591,0.483,0.885
		c0.119,0.423,0.23,0.82,0.265,1.089c0.21,1.614,0.367,3.225,0.533,4.931c0.339,3.479,0.689,7.075,1.518,10.638
		c12.403,53.376,45.299,87.707,97.774,102.039c9.37,2.558,19.319,3.855,29.573,3.855c4.053,0,8.232-0.203,12.432-0.604
		c7.203-0.689,9.725-1.837,10.61-6.556c0.002,0,0.012-0.003,0.012-0.003s0.003-0.039,0.008-0.104
		c0.21-1.161,0.327-2.539,0.389-4.171c0.385-3.812,0.931-9.096,1.778-14.089c0.524-3.084,3.153-5.416,6.28-5.425
		c0.019,0,0.037,0,0.055,0l22.251,0.002c16.25,0,32.502-0.004,48.751-0.025c7.012-0.005,11.828-3.727,13.563-10.48
		c1.387-5.402,2.74-10.813,4.093-16.224l5.57-22.225c4.203-16.739,8.55-34.045,12.771-51.087c0.569,0.038,1.173,0.055,1.868,0.055
		c0.618,0,1.238-0.015,1.858-0.031l0.148-0.004c0.52-0.014,1.04-0.029,1.559-0.029c0.511,0,1.02,0.014,1.521,0.056
		c0.663,0.059,1.318,0.088,1.949,0.088l0,0c6.771,0,11.626-3.408,14.042-9.854l0.059-0.158l0.02-0.672v-4.548L295.984,134.547z"/>
	<path fill="#00B5E5" d="M8.5,143.174c0.578-4.285,1.007-8.594,1.759-12.848c7.892-44.612,32.427-76.652,73.218-96.136
		c17.814-8.509,36.877-12.241,56.513-11.176c47.505,2.574,83.374,24.7,106.974,66.033c4.409,7.722,7.006,16.473,10.484,24.732
		c0.722,1.71,0.335,2.62-1.337,3.598c-6.894,4.026-11.117,10.095-12.991,17.832c-0.422,1.744-0.878,3.48-1.356,5.386
		c-1.396,0-2.779,0-4.275,0c-0.726-4.122-1.275-8.328-2.242-12.431c-1.015-4.313-2.348-8.56-3.746-12.768
		c-0.266-0.802-1.479-1.828-2.263-1.837c-13.634-0.115-27.271-0.091-40.904-0.085c-0.355,0.002-0.711,0.16-1.009,0.23
		c0.918,8.984,1.826,17.857,2.755,26.949c-6.318,0-11.958,0-17.825,0c-0.574-5.611-1.099-11.137-1.722-16.652
		c-0.33-2.912-0.905-5.793-1.234-8.701c-0.239-2.137-1.71-1.856-3.124-1.856c-16.57,0.007-33.14,0.013-49.711,0.019
		c-3.977,0.002-7.958-0.091-11.927,0.096c-0.782,0.036-2.095,1.075-2.186,1.777c-1.037,8.153-1.889,16.333-2.773,24.506
		c-0.027,0.253,0.125,0.527,0.273,1.102c14.859,0,29.756,0,44.651,0c0.091,0.246,0.181,0.488,0.272,0.733
		c-0.721,0.396-1.413,0.866-2.169,1.174c-6.649,2.719-11.462,7.289-13.95,14.075c-0.596,1.626-1.414,2.113-3.087,2.095
		c-7.668-0.087-15.337-0.04-23.007-0.04c-0.92,0-1.84,0-3.16,0c0.431,5.111,0.751,9.89,1.263,14.647
		c0.362,3.381,1.181,6.721,1.422,10.104c0.176,2.476,1.319,2.846,3.454,2.816c7.574-0.102,15.149,0.011,22.725-0.074
		c1.808-0.022,2.667,0.441,3.084,2.343c1.111,5.051,2.479,10.05,3.841,15.454c-9.418,0-18.539,0-28.269,0
		c0.964,2.925,1.693,5.403,2.589,7.816c4.855,13.065,11.181,25.186,21.435,35.013c4.044,3.876,8.361,5.636,13.806,4.389
		c1.593-0.364,2.415,0.127,3.034,1.624c0.534,1.294,1.191,2.737,2.226,3.586c3.929,3.226,4.013,7.474,3.881,12
		c-0.208,7.196-0.091,7.182-7.395,7.882c-13.698,1.308-27.304,0.486-40.541-3.127c-51.358-14.027-82.866-47.292-94.892-99.045
		c-1.149-4.942-1.321-10.11-1.979-15.172c-0.107-0.818-0.387-1.618-0.586-2.425C8.5,152.265,8.5,147.719,8.5,143.174z
		 M164.786,95.411c-2.16-5.522-3.961-10.681-6.168-15.655c-4.803-10.821-11.043-20.637-20.233-28.394
		c-2.237-1.89-3.614-1.625-5.698,0.163c-9.346,8.026-15.593,18.165-20.347,29.327c-1.984,4.658-3.647,9.454-5.599,14.559
		C126.255,95.411,145.125,95.411,164.786,95.411z M34.373,140.666c0.491,0.184,0.663,0.301,0.834,0.301
		c14.862,0.025,29.725,0.017,44.588,0.081c1.747,0.007,1.966-0.882,2.063-2.28c0.309-4.528,0.651-9.055,1.103-13.567
		c0.383-3.819,0.937-7.617,1.396-11.28c-0.299-0.228-0.375-0.335-0.449-0.335c-13.914-0.05-27.827-0.113-41.74-0.071
		c-0.683,0.002-1.74,0.793-1.989,1.456C37.081,123.234,34.993,131.74,34.373,140.666z M34.389,158.969
		c0.507,8.854,2.67,16.927,5.255,24.928c0.671,2.079,1.746,2.656,3.872,2.64c12.763-0.097,25.527-0.034,38.292-0.036
		c0.824,0,1.647-0.104,2.308-0.148c-0.783-8.659-1.571-17.106-2.29-25.557c-0.128-1.521-0.902-1.848-2.234-1.834
		c-3.875,0.041-7.752,0.008-11.629,0.008C56.913,158.967,45.863,158.969,34.389,158.969z M221.821,95.431
		c-14.721-22.165-34.267-36.584-59.845-43.889c0.497,0.944,0.63,1.289,0.84,1.579c8.711,12.104,14.775,25.484,19.021,39.721
		c0.606,2.037,1.43,2.842,3.677,2.818c11.077-0.128,22.156-0.057,33.235-0.063C219.571,95.593,220.391,95.511,221.821,95.431z
		 M108.564,51.781c-24.922,7.326-44.371,21.665-58.659,43.4c0.624,0.243,0.793,0.368,0.965,0.368
		c12.024,0.017,24.05,0.066,36.074-0.057c0.813-0.008,2.006-1.165,2.353-2.051c2.445-6.24,4.314-12.741,7.145-18.795
		C100.028,66.978,104.349,59.65,108.564,51.781z M108.755,247.856c-8.911-12.993-15.137-27.097-19.617-42.034
		c-0.197-0.659-1.496-1.402-2.285-1.407c-11.834-0.087-23.667-0.058-35.5-0.044c-0.345,0-0.688,0.14-1.502,0.315
		C64.289,226.53,83.71,240.944,108.755,247.856z"/>
	<path fill="#00B5E5" d="M292.556,139.169c-2.139,5.696-6.353,7.808-12.244,7.297c-2.443-0.208-4.937,0.138-7.377-0.082
		c-2.275-0.207-3.08,0.732-3.599,2.824c-5.474,22.095-11.038,44.171-16.578,66.25c-1.952,7.787-3.877,15.582-5.873,23.356
		c-1.313,5.108-4.538,7.599-9.861,7.604c-23.665,0.028-47.33,0.03-70.998,0.022c-5.538-0.002-9.696-3.889-9.696-8.984
		c-0.004-5.151,3.991-8.935,9.681-8.945c20.257-0.041,40.516-0.019,60.773-0.021c1.316,0,2.635,0,4.217,0
		c0.781-3.079,1.53-6.029,2.368-9.332c-7.23,0-14.026,0-20.825,0c-17.7,0.004-35.402,0.004-53.104,0.019
		c-5.309,0.006-7.808-1.84-9.12-7.001c-3.887-15.285-7.761-30.577-11.588-45.88c-1.643-6.566,1.478-10.52,8.256-10.522
		c29.725-0.014,59.448-0.006,89.172-0.008c4.255,0,8.509,0,13.12,0c1.201-4.658,2.396-9.278,3.581-13.902
		c0.561-2.199,1.039-4.417,1.662-6.595c1.169-4.076,4.235-6.633,8.473-6.714c6.909-0.133,13.822-0.154,20.729-0.015
		c4.699,0.094,7.149,3.266,8.831,7.221C292.556,136.898,292.556,138.032,292.556,139.169z M219.832,183.007
		c7.315,0,14.303,0.019,21.293-0.039c0.513-0.006,1.352-0.461,1.475-0.873c0.79-2.664,1.424-5.372,2.127-8.139
		c-8.579,0-16.74,0-24.895,0C219.832,177.027,219.832,179.842,219.832,183.007z M159.908,173.843
		c0.637,2.502,1.302,4.571,1.663,6.689c0.334,1.959,1.191,2.655,3.22,2.557c3.585-0.173,7.185-0.051,10.776-0.051
		c2.604,0,5.208,0,7.822,0c0-3.351,0-6.225,0-9.195C175.566,173.843,167.943,173.843,159.908,173.843z M237.953,201.117
		c0.744-3.104,1.438-6.001,2.152-8.979c-6.947,0-13.581,0-20.188,0c0,3.129,0,6.005,0,8.979
		C225.961,201.117,231.789,201.117,237.953,201.117z M210.653,182.891c0-3.214,0-6.094,0-8.986c-6.117,0-12.024,0-18.05,0
		c0,3.081,0,5.961,0,8.986C198.683,182.891,204.593,182.891,210.653,182.891z M210.688,192.094c-6.222,0-12.135,0-18.073,0
		c0,3.094,0,5.977,0,8.955c6.086,0,11.994,0,18.073,0C210.688,197.999,210.688,195.121,210.688,192.094z M183.438,192.199
		c-6.45,0-12.578,0-18.906,0c0.685,2.71,1.203,5.104,1.937,7.432c0.198,0.632,1.038,1.497,1.601,1.51
		c5.073,0.119,10.15,0.069,15.369,0.069C183.438,198.013,183.438,195.133,183.438,192.199z"/>
	<path fill="#F4F4F4" d="M224.816,281c-3.383,0-6.742-1.58-9.215-4.127c-2.463-2.535-3.831-5.961-3.752-9.321
		c0.166-7.033,5.988-12.777,12.977-12.777c0.166,0,0.331-0.007,0.496-0.001c6.965,0.273,12.724,6.428,12.576,13.34
		c-0.146,6.938-6.111,12.887-13.023,12.887H224.816z"/>
	<path fill="#00B5E5" d="M233.843,267.928c-0.1,4.691-4.348,8.854-9.006,8.831c-4.814-0.025-9.044-4.365-8.933-9.157
		c0.117-4.931,4.382-8.979,9.258-8.786C229.917,259.002,233.942,263.226,233.843,267.928z"/>
	<path fill="#F4F4F4" d="M179.336,280.783c-6.964-0.177-12.569-6.09-12.496-13.181c0.074-7.072,5.842-12.836,12.857-12.848
		c3.47,0,6.71,1.361,9.145,3.831c2.47,2.505,3.801,5.831,3.75,9.363c-0.104,7.078-5.903,12.838-12.926,12.838L179.336,280.783z"/>
	<path fill="#00B5E5" d="M188.534,267.89c-0.073,4.977-4.176,8.963-9.094,8.838c-4.776-0.121-8.595-4.18-8.544-9.083
		c0.052-4.858,4.007-8.825,8.809-8.833C184.628,258.804,188.607,262.896,188.534,267.89z"/>
</g>
</svg>
