<?xml version="1.0" encoding="utf-8"?>
<!-- Generator: Adobe Illustrator 16.0.3, SVG Export Plug-In . SVG Version: 6.00 Build 0)  -->
<!DOCTYPE svg PUBLIC "-//W3C//DTD SVG 1.1//EN" "http://www.w3.org/Graphics/SVG/1.1/DTD/svg11.dtd">
<svg version="1.1" id="Layer_1" xmlns="http://www.w3.org/2000/svg" xmlns:xlink="http://www.w3.org/1999/xlink" x="0px" y="0px"
	 width="300px" height="300px" viewBox="0 0 300 300" enable-background="new 0 0 300 300" xml:space="preserve">
<g>
	<g>
		<path fill="#00B5E5" d="M252.694,44.011c-22.175,0-62.084-5.324-101.996-37.253c-31.931,31.927-74.501,37.253-99.335,37.253
			c-12.42,0-20.4-1.337-20.4-1.337v68.571c0,143.683,119.735,182.872,119.735,182.872s119.732-39.188,119.732-182.872V42.674
			C270.431,42.674,263.781,44.011,252.694,44.011z"/>
		<path fill="#F4F4F4" d="M150.698,297.326l-0.947-0.313c-1.22-0.397-121.836-41.543-121.836-185.767V39.077l3.55,0.594
			c0.078,0.012,7.918,1.292,19.898,1.292c22.711,0,65.541-4.725,97.18-36.362l1.929-1.927l2.131,1.703
			c39.787,31.835,79.789,36.587,100.091,36.587c10.599,0,17.076-1.263,17.142-1.279l3.644-0.724v72.285
			c0,144.224-120.613,185.37-121.831,185.767L150.698,297.326z M34.012,46.151v65.095c0,133.103,105.487,175.519,116.687,179.638
			c11.188-4.129,116.685-46.676,116.685-179.638V46.219c-3.125,0.388-8.156,0.841-14.688,0.841
			c-20.739,0-61.24-4.764-101.779-36.251C117.94,42.292,74.56,47.06,51.363,47.06C43.599,47.06,37.564,46.552,34.012,46.151z"/>
	</g>
	<g>
		<g>
			<g>
				
					<rect x="177.226" y="85.446" transform="matrix(-0.8656 -0.5008 0.5008 -0.8656 288.879 270.7605)" fill="#F4F4F4" width="7.109" height="22.323"/>
			</g>
			<g>
				<rect x="149.239" y="78.69" fill="#F4F4F4" width="7.109" height="22.327"/>
			</g>
			<g>
				<rect x="85.503" y="142.147" fill="#F4F4F4" width="22.327" height="7.112"/>
			</g>
			<g>
				
					<rect x="93.009" y="114.231" transform="matrix(0.8702 0.4927 -0.4927 0.8702 71.5505 -36.0361)" fill="#F4F4F4" width="22.326" height="7.108"/>
			</g>
			<g>
				
					<rect x="120.751" y="85.446" transform="matrix(-0.8656 0.5008 -0.5008 -0.8656 280.2807 117.9736)" fill="#F4F4F4" width="7.109" height="22.324"/>
			</g>
			<g>
				<path fill="#F4F4F4" d="M157.623,208.116h-9.58c-1.477,0-2.68-1.207-2.68-2.68c0-1.478,1.203-2.683,2.68-2.683h9.58
					c1.474,0,2.68,1.205,2.68,2.683C160.303,206.909,159.097,208.116,157.623,208.116z"/>
			</g>
			<g>
				<path fill="#F4F4F4" d="M164.731,196.932c0,1.471-1.202,2.68-2.678,2.68h-18.443c-1.474,0-2.683-1.209-2.683-2.68l0,0
					c0-1.478,1.208-2.681,2.683-2.681h18.443C163.529,194.251,164.731,195.454,164.731,196.932L164.731,196.932z"/>
			</g>
			<g>
				<path fill="#F4F4F4" d="M184.862,150.921c-2.703,14.332-13.152,17.646-14.642,24.63c-1.491,6.978-1.863,13.59-7.075,14.238
					c-5.508,0.688-14.064,0.266-19.776,0.266c0,0-5.251,0.685-6.624-7.202c-1.373-7.883-2.628-11.884-8.799-17.482
					c-6.171-5.6-13.19-20.786-5.404-35.95c7.788-15.165,26.486-22.536,43.829-14.745
					C183.719,122.462,187.563,136.591,184.862,150.921z"/>
			</g>
			<g>
				
					<rect x="189.753" y="114.228" transform="matrix(-0.8703 0.4926 -0.4926 -0.8703 433.7833 121.3215)" fill="#F4F4F4" width="22.325" height="7.109"/>
			</g>
			<g>
				<rect x="197.313" y="142.147" fill="#F4F4F4" width="22.32" height="7.112"/>
			</g>
		</g>
	</g>
</g>
</svg>
