<?xml version="1.0" encoding="utf-8"?>
<!-- Generator: Adobe Illustrator 16.0.3, SVG Export Plug-In . SVG Version: 6.00 Build 0)  -->
<!DOCTYPE svg PUBLIC "-//W3C//DTD SVG 1.1//EN" "http://www.w3.org/Graphics/SVG/1.1/DTD/svg11.dtd">
<svg version="1.1" id="Layer_1" xmlns="http://www.w3.org/2000/svg" xmlns:xlink="http://www.w3.org/1999/xlink" x="0px" y="0px"
	 width="300px" height="300px" viewBox="0 0 300 300" enable-background="new 0 0 300 300" xml:space="preserve">
<g>
	<path fill="#F4F4F4" d="M297.717,246.778c0,10.075-8.168,18.244-18.245,18.244H20.528c-10.077,0-18.245-8.169-18.245-18.244V52.222
		c0-10.076,8.168-18.244,18.245-18.244h258.943c10.077,0,18.245,8.168,18.245,18.244V246.778z M274.991,238.509V99.63H27.534
		v138.879H274.991z M274.991,78.167V59.229H27.534v18.938H274.991z"/>
	<rect x="15.936" y="49.704" fill="#F4F4F4" width="270.088" height="199.703"/>
	<path fill="#00B5E5" d="M7.397,52.542V246.57c0,7.287,5.907,13.194,13.195,13.194h259.222c7.288,0,13.195-5.907,13.195-13.194
		V52.542c0-7.287-5.907-13.194-13.195-13.194H20.592C13.305,39.348,7.397,45.255,7.397,52.542z M280,244c-87,0-172,0-258,0
		c0-50,0-100,0-149c86,0,171,0,258,0C280,144,280,194,280,244z M280,83c-87,0-172,0-258,0c0-9,0-20,0-29c86,0,171,0,258,0
		C280,63,280,74,280,83z"/>
	<path fill="#00B5E5" d="M84.198,69.948c0.011,2.832-2.299,5.166-5.107,5.142c-2.817-0.021-5.066-2.358-5.021-5.213
		c0.043-2.774,2.17-4.889,4.961-4.939C81.956,64.887,84.184,67.049,84.198,69.948z"/>
	<path fill="#00B5E5" d="M43.36,70.091c-0.058,2.796-2.505,5.111-5.279,5.003c-2.813-0.11-5.002-2.506-4.884-5.356
		c0.117-2.774,2.286-4.825,5.095-4.808C41.137,64.941,43.419,67.267,43.36,70.091z"/>
	<path fill="#00B5E5" d="M58.577,75.09c-2.778-0.068-5.128-2.54-5.011-5.281c0.118-2.819,2.489-4.971,5.368-4.862
		c2.745,0.101,4.863,2.324,4.843,5.073C63.755,72.854,61.393,75.156,58.577,75.09z"/>
	<path fill-rule="evenodd" clip-rule="evenodd" fill="#00B5E5" d="M131.693,136.827c3.049,0.814,5.941,2.021,8.612,3.57l5.327-5.327
		c1.648-1.644,4.34-1.644,5.988,0l6.877,6.882c1.647,1.648,1.647,4.34,0,5.988l-5.326,5.325c1.553,2.667,2.759,5.56,3.568,8.614
		h7.536c2.325,0,4.229,1.903,4.229,4.231v9.73c0,2.328-1.904,4.233-4.229,4.233h-7.536c-0.81,3.052-2.016,5.945-3.568,8.616
		l5.326,5.325c1.647,1.646,1.647,4.338,0,5.984l-6.877,6.881c-1.648,1.648-4.34,1.648-5.988,0l-5.327-5.326
		c-2.67,1.549-5.563,2.76-8.612,3.569v7.532c0,2.329-1.904,4.232-4.233,4.232h-9.733c-2.33,0-4.23-1.903-4.23-4.232v-7.532
		c-3.055-0.81-5.945-2.021-8.615-3.569l-5.328,5.326c-1.648,1.648-4.339,1.648-5.987,0l-6.881-6.881
		c-1.646-1.646-1.646-4.339,0-5.984l5.33-5.325c-1.55-2.671-2.759-5.564-3.573-8.616h-7.529c-2.328,0-4.231-1.905-4.231-4.233v-9.73
		c0-2.328,1.903-4.231,4.231-4.231h7.529c0.814-3.055,2.023-5.947,3.573-8.614l-5.33-5.325c-1.646-1.648-1.646-4.34,0-5.988
		l6.881-6.882c1.648-1.644,4.339-1.644,5.987,0l5.328,5.327c2.669-1.55,5.56-2.756,8.615-3.57v-7.531c0-2.327,1.9-4.23,4.23-4.23
		h9.733c2.329,0,4.233,1.903,4.233,4.23V136.827L131.693,136.827z M200.094,131.111c1.959,0.52,3.814,1.297,5.528,2.292l3.419-3.419
		c1.056-1.057,2.786-1.057,3.842,0l4.418,4.416c1.057,1.057,1.057,2.786,0,3.843l-3.419,3.419c0.994,1.714,1.771,3.57,2.29,5.529
		h4.834c1.495,0,2.718,1.223,2.718,2.717v6.248c0,1.494-1.223,2.719-2.718,2.719h-4.834c-0.52,1.958-1.296,3.814-2.29,5.527
		l3.419,3.422c1.057,1.057,1.057,2.783,0,3.84l-4.418,4.42c-1.056,1.055-2.786,1.055-3.842,0l-3.419-3.423
		c-1.714,0.995-3.569,1.772-5.528,2.295v4.836c0,1.494-1.226,2.714-2.719,2.714h-6.251c-1.492,0-2.714-1.22-2.714-2.714v-4.836
		c-1.959-0.522-3.816-1.3-5.527-2.295l-3.424,3.423c-1.056,1.055-2.781,1.055-3.838,0l-4.422-4.42c-1.058-1.057-1.058-2.783,0-3.84
		l3.423-3.422c-0.996-1.713-1.771-3.569-2.293-5.527h-4.836c-1.494,0-2.715-1.225-2.715-2.719v-6.248
		c0-1.494,1.221-2.717,2.715-2.717h4.836c0.521-1.959,1.297-3.815,2.293-5.529l-3.423-3.419c-1.058-1.057-1.058-2.786,0-3.843
		l4.422-4.416c1.057-1.057,2.782-1.057,3.838,0l3.424,3.419c1.711-0.995,3.568-1.772,5.527-2.292v-4.835
		c0-1.493,1.222-2.719,2.714-2.719h6.251c1.493,0,2.719,1.226,2.719,2.719V131.111L200.094,131.111z M194.249,148.009
		c2.776,0,5.027,2.249,5.027,5.025c0,2.773-2.251,5.025-5.027,5.025c-2.771,0-5.025-2.252-5.025-5.025
		C189.224,150.258,191.478,148.009,194.249,148.009L194.249,148.009z M194.249,140.131c7.129,0,12.904,5.774,12.904,12.903
		c0,7.124-5.775,12.903-12.904,12.903c-7.125,0-12.902-5.779-12.902-12.903C181.347,145.905,187.124,140.131,194.249,140.131
		L194.249,140.131z M122.592,163.15c4.325,0,7.83,3.504,7.83,7.827c0,4.325-3.505,7.828-7.83,7.828
		c-4.322,0-7.824-3.503-7.824-7.828C114.768,166.654,118.27,163.15,122.592,163.15L122.592,163.15z M122.592,150.878
		c11.105,0,20.103,8.997,20.103,20.1c0,11.1-8.998,20.1-20.103,20.1c-11.098,0-20.097-9-20.097-20.1
		C102.495,159.875,111.494,150.878,122.592,150.878L122.592,150.878z"/>
</g>
</svg>
