<?xml version="1.0" encoding="utf-8"?>
<!-- Generator: Adobe Illustrator 16.0.3, SVG Export Plug-In . SVG Version: 6.00 Build 0)  -->
<!DOCTYPE svg PUBLIC "-//W3C//DTD SVG 1.1//EN" "http://www.w3.org/Graphics/SVG/1.1/DTD/svg11.dtd">
<svg version="1.1" id="Layer_1" xmlns="http://www.w3.org/2000/svg" xmlns:xlink="http://www.w3.org/1999/xlink" x="0px" y="0px"
	 width="300px" height="300px" viewBox="0 0 300 300" enable-background="new 0 0 300 300" xml:space="preserve">
<g>
	<polygon fill="#F4F4F4" points="42.308,85.277 37.825,200.857 52.506,219.558 145.993,273.1 150,273.1 264.126,209.359 
		259.026,198.308 259.026,82.958 150,21.846 	"/>
	<g>
		<path fill-rule="evenodd" clip-rule="evenodd" fill="#00B5E5" d="M150.497,4.999c11.472,0,20.77,9.299,20.77,20.772
			c0,0.987-0.073,1.958-0.205,2.908l35.757,20.646h0.013l35.714,20.62c3.805-4.333,9.389-7.074,15.612-7.074
			c11.472,0,20.771,9.299,20.771,20.769c0,9.565-6.467,17.618-15.266,20.028v44.083v41.727c8.799,2.41,15.266,10.461,15.266,20.026
			c0,11.474-9.299,20.772-20.771,20.772c-5.467,0-10.438-2.115-14.146-5.564l-37.181,21.463h-0.013l-36.714,21.197
			c0.752,2.146,1.162,4.456,1.162,6.86c0,11.471-9.298,20.768-20.77,20.768c-11.471,0-20.77-9.297-20.77-20.768
			c0-2.225,0.351-4.368,1.001-6.379l-37.547-21.679h-0.012L55.99,224.711c-3.708,3.449-8.681,5.564-14.146,5.564
			c-11.472,0-20.77-9.299-20.77-20.772c0-9.565,6.465-17.616,15.265-20.026V147.75v-44.083c-8.8-2.41-15.265-10.462-15.265-20.028
			c0-11.47,9.298-20.769,20.77-20.769c6.222,0,11.806,2.74,15.612,7.074l35.713-20.62h0.012l36.683-21.178
			c-0.088-0.78-0.137-1.573-0.137-2.375C129.727,14.297,139.025,4.999,150.497,4.999L150.497,4.999z M168.959,35.289
			c-3.263,6.313-9.669,10.739-17.149,11.206l0.32,80.596c5.232,0.531,9.89,3.004,13.241,6.691l73.371-42.755
			c-0.874-2.294-1.354-4.783-1.354-7.387c0-2.807,0.56-5.486,1.568-7.932l-35.527-20.51l0.004-0.006L168.959,35.289L168.959,35.289z
			 M145.029,45.808c-5.821-1.583-10.625-5.637-13.218-10.963L96.566,55.191l0.005,0.006l-35.529,20.51
			c1.012,2.446,1.569,5.125,1.569,7.932c0,3.321-0.781,6.457-2.166,9.242l73.305,41.933c2.881-3.615,6.945-6.249,11.604-7.312
			L145.029,45.808L145.029,45.808z M242.164,96.891l-73.104,42.594c1.098,2.534,1.707,5.329,1.707,8.266
			c0,2.625-0.485,5.138-1.378,7.451l72.457,41.448c3.552-4.502,8.928-7.494,15.012-7.873V147.75v-43.383
			C250.953,104.002,245.714,101.171,242.164,96.891L242.164,96.891z M238.565,202.604l-72.622-41.545
			c-3.349,4.006-8.177,6.729-13.646,7.33l0.339,85.182c5.762,0.591,10.827,3.534,14.213,7.856l36.584-21.122l-0.004-0.005
			l36.402-21.018c-1.56-2.911-2.443-6.242-2.443-9.78C237.389,207.087,237.804,204.765,238.565,202.604L238.565,202.604z
			 M145.86,253.982l-0.343-85.951c-4.91-1.08-9.169-3.9-12.099-7.778l-72.104,42.016c0.839,2.253,1.297,4.692,1.297,7.234
			c0,3.538-0.883,6.869-2.443,9.78l36.402,21.018l-0.005,0.005l37.271,21.518C136.738,257.938,140.972,255.097,145.86,253.982
			L145.86,253.982z M57.939,196.378l72.328-42.143c-0.672-2.041-1.036-4.222-1.036-6.485c0-2.457,0.428-4.812,1.21-6.998
			L56.434,98.417c-3.462,3.421-8.121,5.631-13.292,5.949v43.383v41.026C49.105,189.146,54.387,192.027,57.939,196.378
			L57.939,196.378z"/>
		<path fill="#F4F4F4" d="M150.495,296.612c-12.34,0-22.38-10.042-22.38-22.383c0-1.906,0.241-3.788,0.713-5.617l-72.641-41.928
			c-4.021,3.364-9.07,5.202-14.345,5.202c-12.34,0-22.381-10.04-22.381-22.379c0-9.642,6.218-18.197,15.266-21.226V104.86
			c-9.048-3.027-15.266-11.583-15.266-21.221c0-12.339,10.041-22.38,22.381-22.38c5.997,0,11.725,2.409,15.917,6.647l70.406-40.642
			c-0.033-0.495-0.05-0.994-0.05-1.498c0-12.34,10.04-22.38,22.38-22.38c12.341,0,22.382,10.04,22.382,22.38
			c0,0.68-0.032,1.362-0.093,2.045l69.458,40.094c4.19-4.239,9.922-6.647,15.915-6.647c12.341,0,22.382,10.041,22.382,22.38
			c0,9.638-6.217,18.193-15.266,21.221v83.422c9.049,3.028,15.266,11.584,15.266,21.226c0,12.339-10.041,22.379-22.382,22.379
			c-5.274,0-10.322-1.838-14.345-5.202l-71.782,41.435c0.561,1.979,0.847,4.029,0.847,6.11
			C172.877,286.57,162.836,296.612,150.495,296.612z M93.6,244.563l0.389,0.217l38.673,22.329l-0.4,1.241
			c-0.612,1.891-0.923,3.87-0.923,5.88c0,10.562,8.593,19.158,19.157,19.158s19.158-8.597,19.158-19.158
			c0-2.17-0.361-4.301-1.07-6.327l-0.441-1.259l76.095-43.927l0.872,0.81c3.555,3.314,8.19,5.138,13.049,5.138
			c10.563,0,19.159-8.594,19.159-19.156c0-8.608-5.792-16.205-14.081-18.478l-1.185-0.324V102.44l1.185-0.325
			c8.289-2.272,14.081-9.871,14.081-18.476c0-10.563-8.596-19.156-19.159-19.156c-5.512,0-10.762,2.376-14.401,6.521l-0.871,0.994
			l-73.567-42.468l0.147-1.073c0.122-0.878,0.188-1.775,0.188-2.691c0-10.563-8.595-19.156-19.158-19.156
			s-19.157,8.593-19.157,19.156c0,0.743,0.044,1.472,0.126,2.196l0.121,1.052L57.117,71.999l-0.873-0.994
			c-3.639-4.146-8.889-6.521-14.402-6.521c-10.563,0-19.158,8.593-19.158,19.156c0,8.605,5.79,16.204,14.08,18.476l1.186,0.325
			v88.266l-1.186,0.324c-8.29,2.272-14.08,9.869-14.08,18.478c0,10.563,8.594,19.156,19.158,19.156c4.86,0,9.495-1.823,13.052-5.138
			l0.87-0.81L93.6,244.563z M134.271,263.937l-39.824-22.993l0.003-0.005L58.01,219.897l0.738-1.376
			c1.473-2.751,2.253-5.87,2.253-9.014c0-2.299-0.403-4.545-1.2-6.68l-0.472-1.271l74.51-43.412l0.862,1.139
			c2.759,3.649,6.722,6.195,11.16,7.174l1.26,0.276l0.354,88.534l-1.258,0.287c-4.424,1.007-8.361,3.579-11.09,7.235
			L134.271,263.937z M98.688,239.668l34.753,20.069c2.844-3.343,6.605-5.778,10.803-7.001l-0.335-83.45
			c-4.216-1.189-8.005-3.607-10.877-6.944l-69.771,40.655c0.638,2.104,0.963,4.288,0.963,6.511c0,3.147-0.67,6.276-1.949,9.134
			l36.414,21.02L98.688,239.668z M166.443,263.521l-0.861-1.099c-3.2-4.082-7.977-6.721-13.107-7.246l-1.442-0.148l-0.354-88.08
			l1.441-0.16c4.926-0.54,9.396-2.94,12.585-6.761l0.867-1.035l74.958,42.88l-0.445,1.266c-0.719,2.046-1.084,4.185-1.084,6.371
			c0,3.147,0.78,6.263,2.252,9.014l0.737,1.376L166.443,263.521z M154.243,252.164c4.987,0.85,9.595,3.401,12.974,7.188
			l70.505-40.711c-1.276-2.857-1.944-5.986-1.944-9.134c0-2.098,0.287-4.159,0.857-6.151l-70.357-40.245
			c-3.314,3.515-7.623,5.845-12.363,6.676L154.243,252.164z M242.252,198.735l-74.862-42.822l0.496-1.291
			c0.844-2.19,1.271-4.504,1.271-6.872c0-2.649-0.53-5.212-1.577-7.623l-0.571-1.313l75.522-44.008l0.872,1.052
			c3.369,4.064,8.309,6.578,13.553,6.899l1.513,0.094v87.439l-1.513,0.093c-5.422,0.338-10.47,2.984-13.845,7.261L242.252,198.735z
			 M171.354,154.468l70.125,40.113c3.573-3.987,8.469-6.572,13.766-7.265v-81.485c-5.106-0.671-9.873-3.116-13.413-6.885
			l-70.765,41.234c0.873,2.42,1.313,4.961,1.313,7.57C172.38,150.049,172.034,152.302,171.354,154.468z M57.56,198.466l-0.872-1.068
			c-3.367-4.126-8.339-6.686-13.645-7.013l-1.512-0.093v-87.439l1.512-0.094c4.61-0.283,8.963-2.234,12.257-5.49l0.872-0.858
			l76.241,43.613l-0.455,1.268c-0.74,2.074-1.114,4.247-1.114,6.458c0,2.042,0.321,4.059,0.954,5.981l0.406,1.239L57.56,198.466z
			 M44.753,187.316c5.172,0.677,9.979,3.167,13.525,7l70.083-40.837c-0.493-1.863-0.741-3.784-0.741-5.729
			c0-2.127,0.297-4.224,0.884-6.251l-71.84-41.092c-3.343,2.958-7.494,4.844-11.911,5.424V187.316z M134.151,136.9L58.326,93.524
			l0.677-1.361c1.325-2.662,1.999-5.53,1.999-8.523c0-2.53-0.488-4.992-1.448-7.316l-0.538-1.302l73.488-42.436l0.757,1.554
			c2.42,4.976,6.863,8.663,12.192,10.116l1.182,0.321l0.337,84.206l-1.258,0.291c-4.2,0.961-8.001,3.354-10.701,6.745L134.151,136.9
			z M62.521,92.211l70.869,40.541c2.782-3.08,6.384-5.335,10.348-6.494l-0.318-79.251c-5.153-1.711-9.502-5.25-12.244-9.933
			L63.032,76.422c0.793,2.316,1.193,4.737,1.193,7.217C64.225,86.623,63.652,89.497,62.521,92.211z M165.056,135.827l-0.878-0.962
			c-3.186-3.504-7.521-5.698-12.212-6.173l-1.441-0.149l-0.332-83.563l1.516-0.094c6.677-0.415,12.737-4.375,15.818-10.336
			l0.775-1.502l37.758,21.797l-0.007,0.007l34.932,20.17l-0.54,1.302c-0.957,2.32-1.445,4.782-1.445,7.316
			c0,2.345,0.421,4.637,1.248,6.814l0.486,1.279L165.056,135.827z M153.736,125.679c4.495,0.755,8.646,2.871,11.917,6.072
			L236.788,90.3c-0.671-2.151-1.011-4.385-1.011-6.661c0-2.48,0.399-4.904,1.189-7.217l-36.164-20.878l0.007-0.007l-31.249-18.042
			c-3.526,5.711-9.494,9.582-16.133,10.46L153.736,125.679z"/>
	</g>
	<g>
		<circle fill="#00B5E5" cx="150.813" cy="149.391" r="67.041"/>
		<path fill="#F4F4F4" d="M150.813,218.043c-37.856,0-68.654-30.796-68.654-68.652c0-37.854,30.798-68.653,68.654-68.653
			c37.857,0,68.653,30.8,68.653,68.653C219.466,187.247,188.67,218.043,150.813,218.043z M150.813,83.961
			c-36.079,0-65.431,29.355-65.431,65.43c0,36.08,29.352,65.43,65.431,65.43c36.078,0,65.43-29.35,65.43-65.43
			C216.242,113.316,186.891,83.961,150.813,83.961z"/>
	</g>
	<g>
		<path fill="#F4F4F4" d="M133.367,103.183c0.362,0.985,0.706,1.981,1.094,2.959c0.146,0.369,0.125,0.604-0.231,0.829
			c-0.389,0.244-0.721,0.584-1.114,0.824c-2.027,1.224-3.21,3.173-4.262,5.165c-1.557,2.956-1.64,6.1-0.804,9.295
			c1,3.824,3.166,6.799,6.494,8.936c0.183,0.12,0.36,0.522,0.294,0.706c-0.356,0.985-0.789,1.939-1.241,3.009
			c-0.657-0.309-1.262-0.52-1.791-0.854c-3.552-2.225-6.051-5.291-7.252-9.338c-0.412-1.394-0.718-2.82-1.074-4.232
			c0-0.927,0-1.854,0-2.778c0.044-0.145,0.099-0.286,0.131-0.432c0.329-1.529,0.494-3.112,1.007-4.577
			c1.491-4.243,4.245-7.456,8.284-9.512C133.057,103.183,133.212,103.183,133.367,103.183z"/>
		<path fill="#F4F4F4" d="M130.034,195.561c0.28-1.673,0.479-3.113,0.77-4.54c3.149-15.4,6.314-30.803,9.469-46.205
			c1.108-5.406,2.194-10.824,3.316-16.232c0.096-0.462-0.003-0.758-0.29-1.104c-1.266-1.523-2.444-3.082-3.063-5.03
			c-0.974-3.076-0.416-5.926,0.932-8.731c1.756-3.659,4.816-5.588,8.688-5.94c3.551-0.324,6.823,0.774,9.388,3.435
			c1.521,1.577,2.721,3.37,3.151,5.559c0.708,3.61-0.082,6.912-2.319,9.811c-0.618,0.802-0.739,1.505-0.522,2.452
			c1.204,5.282,2.328,10.586,3.532,15.87c3.402,14.949,6.833,29.895,10.236,44.846c0.432,1.9,0.767,3.821,1.171,5.852
			c-2.395,0-4.69,0-7.128,0c-1.494-6.235-3.014-12.585-4.559-19.044c-7.256,1.432-14.415,1.117-21.618-0.04
			c-0.456,2.205-0.882,4.344-1.341,6.475c-0.856,3.966-1.742,7.925-2.586,11.895c-0.106,0.499-0.289,0.688-0.801,0.684
			C134.362,195.547,132.262,195.561,130.034,195.561z M144.134,162.45c-0.567,2.817-1.116,5.542-1.699,8.436
			c6.433,0.768,12.66,1.656,18.916-0.22c-0.537-2.768-1.051-5.402-1.587-8.156C154.54,163.404,149.42,163.275,144.134,162.45z
			 M145.371,156.781c0.17,0.063,0.239,0.11,0.312,0.113c3.078,0.161,6.159,0.337,9.24,0.456c0.84,0.034,1.698-0.05,2.531-0.191
			c1.023-0.177,1.021-0.232,0.796-1.268c-0.06-0.276-0.112-0.552-0.174-0.83c-0.479-2.117-0.959-4.239-1.462-6.461
			c-3.227,0-6.405,0-9.72,0C146.398,151.267,145.884,154.026,145.371,156.781z M152.57,130.893
			c-1.709-0.099-1.715-0.101-2.055,1.447c-0.595,2.709-1.187,5.42-1.766,8.133c-0.168,0.788-0.292,1.585-0.457,2.49
			c2.333,0,4.529,0,6.833,0C154.254,138.847,153.417,134.886,152.57,130.893z"/>
		<path fill="#F4F4F4" d="M167.915,103.507c2.708,0.994,4.734,2.612,6.377,4.722c2.708,3.478,4.101,7.424,3.816,11.838
			c-0.398,6.223-3.156,11.136-8.48,14.51c-1.063,0.671-1.189,0.624-1.829-0.456c-0.13-0.22-0.255-0.447-0.375-0.673
			c-0.735-1.41-0.686-1.718,0.583-2.641c3.199-2.326,5.287-5.349,5.89-9.313c0.515-3.4-0.277-6.535-1.973-9.465
			c-1.166-2.014-2.654-3.723-4.819-4.747c-0.179-0.085-0.396-0.453-0.344-0.61C167.098,105.629,167.505,104.609,167.915,103.507z"/>
		<path fill="#F4F4F4" d="M163.541,130.696c-0.284-0.736-0.55-1.375-0.775-2.026c-0.233-0.671,0.399-0.866,0.727-1.216
			c0.855-0.916,1.818-1.747,2.567-2.741c1.973-2.613,2.174-5.467,1.08-8.53c-0.703-1.967-1.893-3.506-3.478-4.799
			c-1.428-1.172-1.424-1.179-0.523-2.762c0.15-0.263,0.308-0.522,0.444-0.755c2.883,0.966,4.513,3.144,5.772,5.647
			c0.701,1.388,1.451,2.822,1.366,4.441c-0.147,2.824-0.292,5.668-1.918,8.152C167.496,128.103,165.899,129.766,163.541,130.696z"/>
		<path fill="#F4F4F4" d="M138.133,130.682c-1.082-0.759-2.133-1.326-2.97-2.116c-3.01-2.849-4.731-6.33-4.24-10.535
			c0.433-3.728,1.844-7.055,5.045-9.349c0.023-0.015,0.041-0.034,0.064-0.047c2.039-1.247,2.049-0.862,2.861,1.155
			c0.154,0.384,0.016,0.645-0.372,0.872c-2.726,1.593-4.193,4.044-4.567,7.121c-0.455,3.73,1.005,6.723,3.807,9.118
			c1.3,1.111,1.314,1.096,0.757,2.697C138.427,129.86,138.332,130.123,138.133,130.682z"/>
	</g>
</g>
</svg>
