<?xml version="1.0" encoding="utf-8"?>
<!-- Generator: Adobe Illustrator 16.0.3, SVG Export Plug-In . SVG Version: 6.00 Build 0)  -->
<!DOCTYPE svg PUBLIC "-//W3C//DTD SVG 1.1//EN" "http://www.w3.org/Graphics/SVG/1.1/DTD/svg11.dtd">
<svg version="1.1" id="Layer_1" xmlns="http://www.w3.org/2000/svg" xmlns:xlink="http://www.w3.org/1999/xlink" x="0px" y="0px"
	 width="300px" height="300px" viewBox="0 0 300 300" enable-background="new 0 0 300 300" xml:space="preserve">
<g>
	<g>
		<rect x="17.48" y="39.802" fill="#F4F4F4" width="247.289" height="182.843"/>
		<path fill="#F4F4F4" d="M277.297,219.3c0,9.926-8.048,17.973-17.975,17.973H21.79c-9.926,0-17.974-8.047-17.974-17.973V41.883
			c0-9.926,8.048-17.973,17.974-17.973h237.533c9.927,0,17.975,8.047,17.975,17.973V219.3z M253.721,212.518V87.565H28.57v124.952
			H253.721z M253.721,65.168V49.844H28.57v15.324H253.721z"/>
		<path fill="#00B5E5" d="M9.664,42.399v177.65c0,6.672,5.408,12.08,12.08,12.08h237.34c6.672,0,12.08-5.408,12.08-12.08V42.399
			c0-6.672-5.408-12.08-12.08-12.08H21.744C15.072,30.319,9.664,35.727,9.664,42.399z M260,218c-81,0-157,0-237,0c0-46,0-92,0-136
			c80,0,156,0,237,0C260,126,260,172,260,218z M260,71c-81,0-157,0-237,0c0-8,0-19,0-27c80,0,156,0,237,0C260,52,260,63,260,71z"/>
		<path fill="#00B5E5" d="M79.979,58.336c0.012,2.595-2.104,4.73-4.675,4.708c-2.58-0.02-4.639-2.159-4.597-4.772
			c0.039-2.541,1.986-4.477,4.542-4.522C77.928,53.703,79.968,55.681,79.979,58.336z"/>
		<path fill="#00B5E5" d="M42.589,58.467c-0.052,2.56-2.293,4.681-4.833,4.579c-2.575-0.1-4.581-2.293-4.472-4.903
			c0.108-2.541,2.093-4.418,4.665-4.402C40.554,53.753,42.644,55.88,42.589,58.467z"/>
		<path fill="#00B5E5" d="M56.523,63.044c-2.544-0.062-4.696-2.325-4.589-4.835c0.108-2.582,2.279-4.553,4.916-4.453
			c2.513,0.092,4.452,2.129,4.433,4.646C61.264,60.996,59.101,63.105,56.523,63.044z"/>
		<path fill-rule="evenodd" clip-rule="evenodd" fill="#00B5E5" d="M110.275,134.336c2.522-0.634,5.089-0.922,7.632-0.877
			l1.706-5.967c0.526-1.845,2.463-2.924,4.309-2.396l7.709,2.202c1.848,0.527,2.924,2.465,2.397,4.312l-1.702,5.967
			c2.183,1.298,4.211,2.901,6.017,4.775l5.427-3.016c1.674-0.932,3.809-0.322,4.74,1.354l3.896,7.009
			c0.934,1.676,0.322,3.809-1.35,4.741l-5.427,3.016c0.638,2.522,0.926,5.09,0.877,7.633l5.97,1.705
			c1.844,0.526,2.924,2.464,2.393,4.31l-2.199,7.709c-0.525,1.848-2.463,2.925-4.312,2.397l-5.967-1.705
			c-1.305,2.186-2.901,4.213-4.775,6.021l3.017,5.423c0.932,1.677,0.321,3.813-1.354,4.744l-7.014,3.897
			c-1.675,0.931-3.807,0.32-4.739-1.356l-3.014-5.422c-2.526,0.636-5.092,0.922-7.636,0.877l-1.703,5.969
			c-0.525,1.845-2.466,2.92-4.311,2.395l-7.713-2.2c-1.841-0.527-2.92-2.467-2.394-4.309l1.704-5.97
			c-2.183-1.306-4.213-2.901-6.02-4.775l-5.423,3.013c-1.677,0.934-3.809,0.323-4.74-1.353l-3.898-7.006
			c-0.933-1.68-0.324-3.813,1.356-4.745l5.42-3.013c-0.635-2.526-0.921-5.096-0.875-7.636l-5.971-1.703
			c-1.843-0.524-2.922-2.466-2.395-4.312l2.2-7.708c0.53-1.846,2.467-2.924,4.313-2.397l5.969,1.704
			c1.303-2.187,2.901-4.209,4.775-6.021l-3.016-5.427c-0.933-1.676-0.323-3.804,1.354-4.737l7.011-3.897
			c1.678-0.934,3.81-0.326,4.743,1.353L110.275,134.336L110.275,134.336z M157.248,102.835c1.619-0.409,3.27-0.593,4.9-0.562
			l1.092-3.831c0.338-1.185,1.586-1.876,2.771-1.537l4.945,1.413c1.186,0.339,1.879,1.585,1.539,2.769l-1.094,3.83
			c1.404,0.833,2.703,1.861,3.867,3.065l3.479-1.935c1.076-0.601,2.447-0.208,3.045,0.868l2.502,4.498
			c0.598,1.077,0.205,2.449-0.871,3.046l-3.479,1.937c0.408,1.619,0.594,3.266,0.563,4.897l3.834,1.098
			c1.18,0.335,1.873,1.581,1.533,2.764l-1.41,4.951c-0.338,1.181-1.586,1.875-2.768,1.538l-3.832-1.094
			c-0.834,1.401-1.863,2.703-3.064,3.862l1.936,3.482c0.598,1.075,0.205,2.446-0.871,3.046l-4.502,2.499
			c-1.074,0.601-2.441,0.208-3.041-0.868l-1.936-3.481c-1.621,0.407-3.268,0.592-4.898,0.56l-1.096,3.838
			c-0.338,1.18-1.584,1.87-2.764,1.535l-4.955-1.415c-1.186-0.337-1.873-1.58-1.535-2.764l1.094-3.833
			c-1.403-0.837-2.706-1.864-3.865-3.064l-3.481,1.935c-1.077,0.599-2.446,0.204-3.046-0.873l-2.499-4.498
			c-0.596-1.075-0.208-2.445,0.868-3.046l3.484-1.933c-0.409-1.62-0.595-3.27-0.562-4.902l-3.834-1.091
			c-1.184-0.338-1.876-1.583-1.538-2.768l1.414-4.951c0.338-1.185,1.583-1.873,2.768-1.538l3.833,1.095
			c0.832-1.405,1.86-2.708,3.064-3.863l-1.938-3.481c-0.596-1.076-0.208-2.45,0.868-3.046l4.502-2.504
			c1.074-0.596,2.447-0.204,3.043,0.873L157.248,102.835L157.248,102.835z M159.805,117.345c1.998-1.111,4.521-0.389,5.633,1.609
			c1.109,1.999,0.393,4.52-1.609,5.63c-1.994,1.111-4.52,0.389-5.631-1.607C157.086,120.977,157.807,118.456,159.805,117.345
			L159.805,117.345z M156.652,111.673c5.133-2.855,11.607-1.006,14.457,4.126c2.854,5.134,1.008,11.604-4.129,14.458
			c-5.129,2.855-11.604,1.006-14.457-4.127C149.67,120.996,151.521,114.527,156.652,111.673L156.652,111.673z M114.26,156.937
			c3.115-1.73,7.041-0.609,8.772,2.503c1.729,3.115,0.61,7.042-2.507,8.772c-3.112,1.729-7.038,0.609-8.769-2.507
			C110.027,162.594,111.147,158.667,114.26,156.937L114.26,156.937z M109.347,148.097c7.996-4.447,18.08-1.567,22.523,6.429
			c4.444,7.994,1.564,18.077-6.433,22.523c-7.993,4.441-18.073,1.566-22.52-6.432C98.474,162.623,101.354,152.541,109.347,148.097
			L109.347,148.097z"/>
	</g>
	<rect x="242.563" y="156.993" fill="#E3E1E4" width="47.133" height="10.333"/>
	<g>
		<g>
			<path fill="#F4F4F4" d="M286.689,242.113h-66.756v-92.27h66.756V242.113z"/>
		</g>
		<rect x="232.992" y="248.133" fill="#E3E1E4" width="47.133" height="17.977"/>
		<path fill-rule="evenodd" clip-rule="evenodd" fill="#00B5E5" d="M246.574,186.247c1.111,0.297,2.166,0.734,3.137,1.298
			l1.938-1.937c0.6-0.602,1.58-0.602,2.178,0l2.504,2.503c0.602,0.601,0.602,1.58,0,2.18l-1.938,1.938
			c0.564,0.972,1.002,2.021,1.297,3.132h2.742c0.846,0,1.539,0.692,1.539,1.543v3.539c0,0.847-0.693,1.539-1.539,1.539h-2.742
			c-0.295,1.11-0.732,2.164-1.297,3.134l1.938,1.941c0.602,0.598,0.602,1.577,0,2.177l-2.504,2.503c-0.598,0.6-1.578,0.6-2.178,0
			l-1.938-1.938c-0.971,0.565-2.025,1.003-3.137,1.3v2.738c0,0.849-0.691,1.541-1.537,1.541h-3.543
			c-0.848,0-1.541-0.692-1.541-1.541v-2.738c-1.109-0.297-2.16-0.734-3.133-1.3l-1.938,1.938c-0.6,0.6-1.578,0.6-2.178,0
			l-2.504-2.503c-0.598-0.6-0.598-1.579,0-2.177l1.939-1.941c-0.566-0.97-1.006-2.023-1.301-3.134h-2.74
			c-0.848,0-1.539-0.692-1.539-1.539v-3.539c0-0.851,0.691-1.543,1.539-1.543h2.74c0.295-1.111,0.734-2.16,1.301-3.132l-1.939-1.938
			c-0.598-0.6-0.598-1.579,0-2.18l2.504-2.503c0.6-0.602,1.578-0.602,2.178,0l1.938,1.937c0.973-0.563,2.023-1.001,3.133-1.298
			v-2.742c0-0.847,0.693-1.539,1.541-1.539h3.543c0.846,0,1.537,0.692,1.537,1.539V186.247L246.574,186.247z M271.465,184.166
			c0.713,0.19,1.389,0.472,2.012,0.832l1.244-1.241c0.383-0.386,1.012-0.386,1.398,0l1.605,1.605c0.387,0.386,0.387,1.016,0,1.398
			l-1.242,1.244c0.361,0.623,0.643,1.301,0.834,2.012h1.758c0.543,0,0.988,0.447,0.988,0.989v2.272c0,0.544-0.445,0.99-0.988,0.99
			h-1.758c-0.191,0.712-0.473,1.389-0.834,2.012l1.242,1.244c0.387,0.383,0.387,1.013,0,1.399l-1.605,1.606
			c-0.387,0.384-1.016,0.384-1.398,0l-1.244-1.246c-0.623,0.363-1.299,0.644-2.012,0.835v1.761c0,0.542-0.447,0.984-0.99,0.984
			h-2.271c-0.547,0-0.99-0.442-0.99-0.984v-1.761c-0.711-0.191-1.389-0.472-2.012-0.835l-1.244,1.246
			c-0.383,0.384-1.014,0.384-1.398,0l-1.607-1.606c-0.385-0.387-0.385-1.017,0-1.399l1.246-1.244
			c-0.363-0.623-0.645-1.3-0.836-2.012h-1.758c-0.545,0-0.986-0.446-0.986-0.99v-2.272c0-0.542,0.441-0.989,0.986-0.989h1.758
			c0.191-0.711,0.473-1.389,0.836-2.012l-1.246-1.244c-0.385-0.383-0.385-1.013,0-1.398l1.607-1.605
			c0.385-0.386,1.016-0.386,1.398,0l1.244,1.241c0.623-0.36,1.301-0.642,2.012-0.832v-1.76c0-0.542,0.443-0.989,0.99-0.989h2.271
			c0.543,0,0.99,0.447,0.99,0.989V184.166L271.465,184.166z M269.338,190.313c1.01,0,1.83,0.82,1.83,1.83
			c0,1.008-0.82,1.828-1.83,1.828c-1.008,0-1.828-0.82-1.828-1.828C267.51,191.134,268.33,190.313,269.338,190.313L269.338,190.313z
			 M269.338,187.447c2.596,0,4.697,2.104,4.697,4.696c0,2.591-2.102,4.694-4.697,4.694c-2.592,0-4.695-2.104-4.695-4.694
			C264.643,189.551,266.746,187.447,269.338,187.447L269.338,187.447z M243.266,195.823c1.572,0,2.848,1.276,2.848,2.847
			c0,1.574-1.275,2.852-2.848,2.852c-1.574,0-2.85-1.277-2.85-2.852C240.416,197.1,241.691,195.823,243.266,195.823L243.266,195.823
			z M243.266,191.356c4.041,0,7.313,3.275,7.313,7.313c0,4.042-3.271,7.313-7.313,7.313c-4.037,0-7.313-3.271-7.313-7.313
			C235.953,194.632,239.229,191.356,243.266,191.356L243.266,191.356z"/>
		<path fill="#F4F4F4" d="M224.926,275.625c-8.22,0-15.211-6.668-15.211-14.892V145.418c0-8.232,6.991-15.012,15.211-15.012h56.796
			c8.226,0,14.616,6.78,14.616,15.012v115.315c0,8.224-6.391,14.892-14.616,14.892H224.926z M253.323,253.405
			c-0.648,0-1.172,0.527-1.172,1.171c0,0.651,0.523,1.182,1.172,1.182s1.171-0.53,1.171-1.182
			C254.494,253.933,253.972,253.405,253.323,253.405z M281.051,237.412v-81.529h-56.052v81.529H281.051z"/>
		<path fill="#00B5E5" d="M281.645,135.82H224.85c-5.424,0-9.813,4.406-9.813,9.831v115.315c0,5.421,4.389,9.818,9.813,9.818h56.795
			c5.424,0,9.822-4.397,9.822-9.818V145.651C291.467,140.226,287.068,135.82,281.645,135.82z M253.246,261.084
			c-3.459,0-6.266-2.813-6.266-6.275c0-3.46,2.807-6.268,6.266-6.268c3.455,0,6.268,2.808,6.268,6.268
			C259.514,258.271,256.701,261.084,253.246,261.084z M286.646,242.142h-66.801v-92.287h66.801V242.142z M266.418,145.799h-26.336
			v-2.871h26.336V145.799z M277.686,144.483c0,1.389-1.129,2.516-2.516,2.516c-1.391,0-2.518-1.127-2.518-2.516
			c0-1.389,1.127-2.513,2.518-2.513C276.557,141.971,277.686,143.094,277.686,144.483z"/>
	</g>
</g>
</svg>
